<?xml version="1.0" encoding="UTF-8"?>
<svg width="24px" height="24px" viewBox="0 0 24 24" version="1.1" xmlns="http://www.w3.org/2000/svg" xmlns:xlink="http://www.w3.org/1999/xlink">
    <!-- Generator: Sketch 63 (92445) - https://sketch.com -->
    <title>icons/bread</title>
    <desc>Created with Sketch.</desc>
    <defs>
        <linearGradient x1="85.7172814%" y1="33.3915773%" x2="15.6983309%" y2="69.6365948%" id="linearGradient-1">
            <stop stop-color="#37DBE0" offset="0%"></stop>
            <stop stop-color="#1758F1" offset="100%"></stop>
        </linearGradient>
    </defs>
    <g id="icons/bread" stroke="none" stroke-width="1" fill="none" fill-rule="evenodd">
        <g id="Icon/bread" transform="translate(-1.000000, 1.000000)">
            <g id="bread" transform="translate(-0.707071, 0.000000)">
                <path d="M17.6515152,0 C15.5790404,0 13.604697,0.494266667 12.0931818,1.39333333 C12.0902525,1.39333333 12.0902525,1.39626667 12.0887879,1.39626667 L4.77141414,5.79333333 C3.16030303,6.76133333 2.27272727,8.09013333 2.27272727,9.53333333 C2.27272727,10.6201333 2.79267677,11.6277333 3.73737374,12.4842667 L3.73737374,21.2666667 C3.73737374,21.6714667 4.06545455,22 4.46969697,22 L16.1868687,22 L16.1883333,22 C16.3113636,22 16.4226768,21.9604 16.525202,21.9061333 C16.5369192,21.9002667 16.5515657,21.9032 16.5632828,21.8958667 L23.8865152,17.4958667 C23.9114141,17.4812 23.9260606,17.4562667 23.9494949,17.4386667 C23.9905051,17.4078667 24.0271212,17.3756 24.0608081,17.336 C24.0915657,17.3008 24.115,17.2626667 24.1369697,17.2230667 C24.160404,17.182 24.1809091,17.1424 24.1955556,17.0969333 C24.2116667,17.0485333 24.2189899,17.0001333 24.2248485,16.9502667 C24.2292424,16.9224 24.2424242,16.896 24.2424242,16.8666667 L24.2424242,8.08426667 C25.1871212,7.22773333 25.7070707,6.22013333 25.7070707,5.13333333 C25.7070707,2.25573333 22.1684848,0 17.6515152,0 Z M15.7313636,11.5984 C15.7196465,11.6072 15.7152525,11.6204 15.705,11.6306667 C15.6669192,11.6644 15.6376263,11.7054667 15.6068687,11.7465333 C15.5805051,11.7832 15.5512121,11.8169333 15.5321717,11.8565333 C15.5131313,11.8961333 15.5043434,11.9401333 15.4926263,11.9826667 C15.4794444,12.0325333 15.464798,12.0809333 15.4618687,12.1337333 C15.4618687,12.1469333 15.4545455,12.1586667 15.4545455,12.1733333 L15.4545455,20.5333333 L5.2020202,20.5333333 L5.2020202,12.1733333 C5.2020202,12.1586667 5.19469697,12.1469333 5.19469697,12.1337333 C5.19176768,12.0809333 5.17712121,12.0325333 5.16393939,11.9826667 C5.15222222,11.9401333 5.14343434,11.8961333 5.12439394,11.8565333 C5.10535354,11.8169333 5.07752525,11.7832 5.04969697,11.7465333 C5.01893939,11.7054667 4.98964646,11.6644 4.95156566,11.6306667 C4.94131313,11.6218667 4.93691919,11.6086667 4.92520202,11.5998667 C4.38328283,11.1686667 3.73737374,10.4602667 3.73737374,9.53333333 C3.73737374,8.624 4.3730303,7.74253333 5.52570707,7.05026667 C6.79555556,6.2876 8.50186869,5.86666667 10.3282828,5.86666667 C13.9005556,5.86666667 16.9191919,7.546 16.9191919,9.53333333 C16.9191919,10.4602667 16.2732828,11.1686667 15.7313636,11.5984 Z M23.054596,7.1984 C23.0428788,7.2072 23.0384848,7.2204 23.0282323,7.2292 C22.9901515,7.26293333 22.9608586,7.304 22.930101,7.34506667 C22.9037374,7.38173333 22.8744444,7.41546667 22.855404,7.45506667 C22.8363636,7.49466667 22.8275758,7.5372 22.8158586,7.5812 C22.8026768,7.63106667 22.7880303,7.67946667 22.785101,7.73226667 C22.785101,7.74693333 22.7777778,7.75866667 22.7777778,7.77333333 L22.7777778,16.4516 L16.9191919,19.9716 L16.9191919,12.4842667 C17.8638889,11.6277333 18.3838384,10.6201333 18.3838384,9.53333333 C18.3838384,6.65573333 14.8452525,4.4 10.3282828,4.4 C10.1803535,4.4 10.0397475,4.42053333 9.89328283,4.4264 L12.8445455,2.6532 C14.1334343,1.8876 15.8397475,1.46666667 17.6515152,1.46666667 C21.2237879,1.46666667 24.2424242,3.146 24.2424242,5.13333333 C24.2424242,6.06026667 23.5965152,6.76866667 23.054596,7.1984 Z" id="Shape" fill="url(#linearGradient-1)"></path>
                <polygon id="Path" points="0.707070707 0 25.7070707 0 25.7070707 22 0.707070707 22"></polygon>
            </g>
        </g>
    </g>
</svg>