<?xml version="1.0" encoding="UTF-8"?>
<svg width="31px" height="29px" viewBox="0 0 31 29" version="1.1" xmlns="http://www.w3.org/2000/svg" xmlns:xlink="http://www.w3.org/1999/xlink">
    <!-- Generator: Sketch 63 (92445) - https://sketch.com -->
    <title>bread</title>
    <desc>Created with Sketch.</desc>
    <defs>
        <linearGradient x1="85.7172814%" y1="33.437299%" x2="15.6983309%" y2="69.5825367%" id="linearGradient-1">
            <stop stop-color="#37DBE0" offset="0%"></stop>
            <stop stop-color="#1758F1" offset="100%"></stop>
        </linearGradient>
    </defs>
    <g id="_Assets" stroke="none" stroke-width="1" fill="none" fill-rule="evenodd">
        <g id="Icon/bread" transform="translate(-2.000000, 0.000000)" fill="url(#linearGradient-1)">
            <g id="bread" transform="translate(2.066667, 0.000000)">
                <path d="M20.3,0 C17.5643333,0 14.9582,0.651533333 12.963,1.83666667 C12.9591333,1.83666667 12.9591333,1.84053333 12.9572,1.84053333 L3.29826667,7.63666667 C1.1716,8.91266667 0,10.6642667 0,12.5666667 C0,13.9992667 0.686333333,15.3274667 1.93333333,16.4565333 L1.93333333,28.0333333 C1.93333333,28.5669333 2.3664,29 2.9,29 L18.3666667,29 L18.3686,29 C18.531,29 18.6779333,28.9478 18.8132667,28.8762667 C18.8287333,28.8685333 18.8480667,28.8724 18.8635333,28.8627333 L28.5302,23.0627333 C28.5630667,23.0434 28.5824,23.0105333 28.6133333,22.9873333 C28.6674667,22.9467333 28.7158,22.9042 28.7602667,22.852 C28.8008667,22.8056 28.8318,22.7553333 28.8608,22.7031333 C28.8917333,22.649 28.9188,22.5968 28.9381333,22.5368667 C28.9594,22.4730667 28.9690667,22.4092667 28.9768,22.3435333 C28.9826,22.3068 29,22.272 29,22.2333333 L29,10.6565333 C30.247,9.52746667 30.9333333,8.19926667 30.9333333,6.76666667 C30.9333333,2.97346667 26.2624,0 20.3,0 Z M17.7654,15.2888 C17.7499333,15.3004 17.7441333,15.3178 17.7306,15.3313333 C17.6803333,15.3758 17.6416667,15.4299333 17.6010667,15.4840667 C17.5662667,15.5324 17.5276,15.5768667 17.5024667,15.6290667 C17.4773333,15.6812667 17.4657333,15.7392667 17.4502667,15.7953333 C17.4328667,15.8610667 17.4135333,15.9248667 17.4096667,15.9944667 C17.4096667,16.0118667 17.4,16.0273333 17.4,16.0466667 L17.4,27.0666667 L3.86666667,27.0666667 L3.86666667,16.0466667 C3.86666667,16.0273333 3.857,16.0118667 3.857,15.9944667 C3.85313333,15.9248667 3.8338,15.8610667 3.8164,15.7953333 C3.80093333,15.7392667 3.78933333,15.6812667 3.7642,15.6290667 C3.73906667,15.5768667 3.70233333,15.5324 3.6656,15.4840667 C3.625,15.4299333 3.58633333,15.3758 3.53606667,15.3313333 C3.52253333,15.3197333 3.51673333,15.3023333 3.50126667,15.2907333 C2.78593333,14.7223333 1.93333333,13.7885333 1.93333333,12.5666667 C1.93333333,11.368 2.7724,10.2060667 4.29393333,9.29353333 C5.97013333,8.2882 8.22246667,7.73333333 10.6333333,7.73333333 C15.3487333,7.73333333 19.3333333,9.947 19.3333333,12.5666667 C19.3333333,13.7885333 18.4807333,14.7223333 17.7654,15.2888 Z M27.4320667,9.4888 C27.4166,9.5004 27.4108,9.5178 27.3972667,9.5294 C27.347,9.57386667 27.3083333,9.628 27.2677333,9.68213333 C27.2329333,9.73046667 27.1942667,9.77493333 27.1691333,9.82713333 C27.144,9.87933333 27.1324,9.9354 27.1169333,9.9934 C27.0995333,10.0591333 27.0802,10.1229333 27.0763333,10.1925333 C27.0763333,10.2118667 27.0666667,10.2273333 27.0666667,10.2466667 L27.0666667,21.6862 L19.3333333,26.3262 L19.3333333,16.4565333 C20.5803333,15.3274667 21.2666667,13.9992667 21.2666667,12.5666667 C21.2666667,8.77346667 16.5957333,5.8 10.6333333,5.8 C10.4380667,5.8 10.2524667,5.82706667 10.0591333,5.8348 L13.9548,3.4974 C15.6561333,2.4882 17.9084667,1.93333333 20.3,1.93333333 C25.0154,1.93333333 29,4.147 29,6.76666667 C29,7.98853333 28.1474,8.92233333 27.4320667,9.4888 Z" id="Shape"></path>
            </g>
        </g>
    </g>
</svg>