<?xml version="1.0" encoding="UTF-8"?>
<svg width="21px" height="29px" viewBox="0 0 21 29" version="1.1" xmlns="http://www.w3.org/2000/svg" xmlns:xlink="http://www.w3.org/1999/xlink">
    <!-- Generator: Sketch 63 (92445) - https://sketch.com -->
    <title>sanitizer</title>
    <desc>Created with Sketch.</desc>
    <defs>
        <linearGradient x1="67.1416815%" y1="31.1553269%" x2="33.5377088%" y2="72.2805751%" id="linearGradient-1">
            <stop stop-color="#37DBE0" offset="0%"></stop>
            <stop stop-color="#1758F1" offset="100%"></stop>
        </linearGradient>
    </defs>
    <g id="_Assets" stroke="none" stroke-width="1" fill="none" fill-rule="evenodd">
        <g id="Icon/Sanitizer" transform="translate(-7.000000, 0.000000)" fill="url(#linearGradient-1)">
            <g id="sanitizer" transform="translate(7.000000, 0.000000)">
                <path d="M14.5205765,9.96498872 L14.5205765,5.58861543 C14.5205765,4.96291353 14.0132446,4.45580293 13.387764,4.45580293 L11.1787796,4.45580293 L11.1787796,2.265625 L14.5015488,2.265625 C15.1272507,2.265625 15.6343613,1.7585144 15.6343613,1.1328125 C15.6343613,0.507110596 15.1272507,0 14.5015488,0 L6.50703427,0 C4.17658232,0 1.98551944,0.907577543 0.337631254,2.55546573 C-0.104873629,2.99774931 -0.104873629,3.71504976 0.337631254,4.15755464 C0.779914842,4.59983829 1.49721529,4.59983829 1.93972017,4.15755464 C3.1597061,2.93756865 4.78170776,2.265625 6.50703427,2.265625 L8.91315459,2.265625 L8.91315459,4.45580293 L6.70417021,4.45580293 C6.07846831,4.45580293 5.57135771,4.96291353 5.57135771,5.58861543 L5.57135771,9.96498872 C2.02976993,11.734787 -0.0672607422,15.3892136 0.00154876992,19.0219574 L0.00154876992,27.8671875 C0.00154876992,28.4928894 0.508880615,29 1.13436128,29 L18.9573517,29 C19.5830536,29 20.0901642,28.4928894 20.0901642,27.8671875 C20.0899429,24.8712082 20.0903855,19.1706391 20.0897217,18.92173 C20.0897217,15.1522522 17.9232178,11.665535 14.5205765,9.96498872 L14.5205765,9.96498872 Z M7.83698271,6.72142793 L12.2549515,6.72142793 L12.2549515,9.15675351 C10.8037567,8.82974243 9.28994751,8.8292999 7.83698271,9.15675351 L7.83698271,6.72142793 Z M10.0459671,11.1770096 C13.7689819,11.1770096 16.8888626,13.8063736 17.6477585,17.305481 C14.9821091,16.6384048 12.1817169,16.8395233 9.59947969,17.9090576 C7.25641631,18.8796921 4.69387056,18.9834595 2.30235293,18.218811 C2.67494199,14.27388 6.00545503,11.1770096 10.0459671,11.1770096 Z M2.26717378,26.734375 L2.26717378,20.5669632 C4.9998627,21.2860336 7.85446167,21.0842514 10.466568,20.002327 C12.8304291,19.0232849 15.4157639,18.9263764 17.8245392,19.7127075 L17.8245392,26.734375 L2.26717378,26.734375 Z" id="Shape"></path>
            </g>
        </g>
    </g>
</svg>