<?xml version="1.0" encoding="UTF-8"?>
<svg width="24px" height="24px" viewBox="0 0 24 24" version="1.1" xmlns="http://www.w3.org/2000/svg" xmlns:xlink="http://www.w3.org/1999/xlink">
    <!-- Generator: Sketch 63 (92445) - https://sketch.com -->
    <title>icons/sanitizer</title>
    <desc>Created with Sketch.</desc>
    <defs>
        <linearGradient x1="66.7543114%" y1="31.1553269%" x2="33.909726%" y2="72.2805751%" id="linearGradient-1">
            <stop stop-color="#37DBE0" offset="0%"></stop>
            <stop stop-color="#1758F1" offset="100%"></stop>
        </linearGradient>
    </defs>
    <g id="icons/sanitizer" stroke="none" stroke-width="1" fill="none" fill-rule="evenodd">
        <g id="Icon/Sanitizer" transform="translate(-1.000000, 0.000000)">
            <g id="sanitizer">
                <path d="M17.6077444,8.24688722 L17.6077444,4.62506105 C17.6077444,4.10723878 17.1926547,3.68756105 16.6808978,3.68756105 L14.8735469,3.68756105 L14.8735469,1.875 L17.5921763,1.875 C18.1041142,1.875 18.5190229,1.45532227 18.5190229,0.9375 C18.5190229,0.419677734 18.1041142,0 17.5921763,0 L11.0512099,0 C9.14447645,0 7.35178863,0.751098656 6.00351648,2.11486819 C5.64146703,2.48089598 5.64146703,3.07452394 6.00351648,3.44073487 C6.36538487,3.80676272 6.95226705,3.80676272 7.3143165,3.44073487 C8.31248681,2.4310913 9.63957908,1.875 11.0512099,1.875 L13.0198538,1.875 L13.0198538,3.68756105 L11.2125029,3.68756105 C10.700565,3.68756105 10.2856563,4.10723878 10.2856563,4.62506105 L10.2856563,8.24688722 C7.38799358,9.71154788 5.67224121,12.7359009 5.7285399,15.7423096 L5.7285399,23.0625 C5.7285399,23.5803223 6.14362959,24 6.6553865,24 L21.2378332,24 C21.7497711,24 22.1646798,23.5803223 22.1646798,23.0625 C22.1644988,20.5830689 22.1648608,15.8653565 22.1643177,15.6593628 C22.1643177,12.5397949 20.3917236,9.65423583 17.6077444,8.24688722 L17.6077444,8.24688722 Z M12.1393495,5.56256105 L15.7540512,5.56256105 L15.7540512,7.57800291 C14.5667101,7.30737305 13.3281389,7.30700681 12.1393495,7.57800291 L12.1393495,5.56256105 Z M13.9467003,9.24993895 C16.9928034,9.24993895 19.545433,11.4259643 20.1663479,14.3217773 C17.985362,13.7697143 15.694132,13.9361573 13.5813925,14.8212891 C11.6643406,15.6245728 9.56771228,15.7104492 7.61101604,15.0776367 C7.91586163,11.8128662 10.6408268,9.24993895 13.9467003,9.24993895 Z M7.58223309,22.125 L7.58223309,17.020935 C9.81806948,17.6160278 12.1536505,17.4490357 14.2908283,16.5536499 C16.2248965,15.7434082 18.3401704,15.663208 20.3109866,16.3139648 L20.3109866,22.125 L7.58223309,22.125 Z" id="Shape" fill="url(#linearGradient-1)"></path>
                <polygon id="Path" points="0 0 27 0 27 24 0 24"></polygon>
            </g>
        </g>
    </g>
</svg>