<?xml version="1.0" encoding="UTF-8"?>
<svg width="33px" height="27px" viewBox="0 0 33 27" version="1.1" xmlns="http://www.w3.org/2000/svg"
     xmlns:xlink="http://www.w3.org/1999/xlink">
    <!-- Generator: Sketch 63 (92445) - https://sketch.com -->
    <title>find</title>
    <desc>Created with Sketch.</desc>
    <g id="_Assets" stroke="none" stroke-width="1" fill="none" fill-rule="evenodd">
        <g id="iconsee" transform="translate(0.000000, -2.000000)" fill="#989AA2">
            <g id="find" transform="translate(0.000000, 2.000000)">
                <path d="M7.74469755,13.4233704 C4.64591215,13.4233704 2.12493896,15.9443436 2.12493896,19.043129 C2.12493896,22.1419144 4.64591215,24.6628876 7.74469755,24.6628876 C10.8432312,24.6628876 13.3642044,22.1419144 13.3642044,19.043129 C13.3642044,15.9443436 10.8432312,13.4233704 7.74469755,13.4233704 Z M7.74469755,14.4032593 C9.91319278,14.4032593 11.7382736,15.8987732 12.2445831,17.9124298 C12.0018769,18.8807373 11.4437027,19.7574005 10.6622085,20.3906021 C9.8404312,21.056282 8.80439755,21.4228592 7.74494931,21.4228592 C6.68524931,21.4228592 5.64921573,21.056282 4.82718657,20.3906021 C4.04569243,19.7574005 3.48726656,18.8807373 3.24456026,17.9124298 C3.75086972,15.8987732 5.57595064,14.4032593 7.74469755,14.4032593 L7.74469755,14.4032593 Z M7.74469755,23.6829986 C5.56210327,23.6829986 3.7279587,22.1680984 3.23549654,20.1348038 C3.5154648,20.5114517 3.84276582,20.8541108 4.21060181,21.1519546 C5.20635225,21.9586258 6.46142578,22.4027481 7.74494931,22.4027481 C9.02822115,22.4027481 10.2832947,21.9586258 11.2790451,21.1519546 C11.6466293,20.8538589 11.9736786,20.5114517 12.2536469,20.1350556 C11.7609329,22.1680984 9.92704008,23.6829986 7.74469755,23.6829986 L7.74469755,23.6829986 Z"
                      id="Shape"></path>
                <path d="M32.49646,16.2970733 C32.4959565,16.2940522 32.4020462,16.0591507 32.3640289,15.9710312 L28.1899338,5.85189058 C27.6755676,4.60512544 26.749054,3.62246704 25.605011,3.03357695 L25.2125015,2.08163452 C24.9574585,1.46379093 24.5291977,0.940361039 23.9727859,0.56774141 C23.4163742,0.196380615 22.7693252,0 22.1016311,0 C20.2460861,0 18.7364731,1.50961304 18.7364731,3.36515811 L18.7364731,4.49485014 C17.9705887,5.44654082 17.5106049,6.65428165 17.5106049,7.96801758 L17.5106049,8.34189604 L15.4891434,8.34189604 L15.4891434,7.96801758 C15.4891434,6.65428165 15.0291596,5.44654082 14.2632751,4.49485014 L14.2632751,3.36515811 C14.2632751,1.50961304 12.7536621,0 10.8981171,0 C10.2304229,0 9.58337402,0.196380615 9.02645874,0.568244918 C8.47080229,0.940361039 8.04228975,1.46379093 7.78724667,2.08163452 L7.39473726,3.03357695 C6.25094604,3.62246704 5.32418062,4.60512544 4.81006621,5.85189058 L3.738533,8.44940186 C3.63530733,8.69966122 3.75439453,8.98592378 4.0046539,9.08914946 C4.25491333,9.1923752 4.54117583,9.073288 4.64414981,8.82302856 L5.71568302,6.22551729 C6.42416382,4.50819394 8.0823212,3.39864351 9.93988037,3.39864351 C12.459343,3.39864351 14.5092544,5.44830322 14.5092544,7.96801758 L14.5092544,15.2766495 C13.1836853,12.9054794 10.6483612,11.2984314 7.7444458,11.2984314 C5.92565918,11.2984314 4.25164034,11.9291153 2.92858887,12.982521 L3.98602295,10.4189987 C4.08924862,10.1689911 3.96990967,9.88247681 3.71990205,9.77925107 C3.46989444,9.67602539 3.18338013,9.79536435 3.08015439,10.045372 L0.635971102,15.9707794 C0.597702059,16.0588989 0.493217484,16.3197327 0.488433838,16.3363495 C0.17296602,17.1792755 -3.66373598e-15,18.0914383 -3.66373598e-15,19.043129 C-3.66373598e-15,23.3134003 3.47417452,26.7875748 7.74469755,26.7875748 C12.0149688,26.7875748 15.4891434,23.3134003 15.4891434,19.043129 L15.4891434,18.7279129 L17.5108566,18.7279129 L17.5108566,19.043129 C17.5108566,23.3134003 20.9850312,26.7875748 25.2553024,26.7875748 C29.5258255,26.7875748 33,23.3134003 33,19.043129 C33,18.0765839 32.8214951,17.1510772 32.49646,16.2970733 Z M9.93988037,2.41875459 C9.49676514,2.41875459 9.0632172,2.47162627 8.64553072,2.57082369 L8.69311523,2.45526123 C8.87388614,2.0171814 9.17777251,1.64607236 9.57103731,1.38272095 C9.9658127,1.11911772 10.4247895,0.979637162 10.8981171,0.979637162 C12.2133637,0.979637162 13.283638,2.04991153 13.283638,3.36515811 L13.283638,3.54265596 C12.353096,2.83795166 11.1947021,2.41875459 9.93988037,2.41875459 Z M22.1018829,0.979637162 C22.5752105,0.979637162 23.0339355,1.11911772 23.4282074,1.38221738 C23.8222275,1.64607236 24.1261139,2.0171814 24.3068848,2.45526123 L24.3544693,2.57082369 C23.9367828,2.47137451 23.5032349,2.41875459 23.0598679,2.41875459 C21.8052979,2.41875459 20.646904,2.83795166 19.716362,3.54265596 L19.716362,3.36515811 C19.716362,2.04991153 20.7863846,0.979637162 22.1018829,0.979637162 L22.1018829,0.979637162 Z M18.4907456,7.96801758 C18.4907456,5.44830322 20.5404053,3.39864351 23.0601196,3.39864351 C24.9176788,3.39864351 26.5758362,4.50819394 27.2840652,6.22551729 L30.0714111,12.982521 C28.7483597,11.9291153 27.0740891,11.2984314 25.2553024,11.2984314 C22.351387,11.2984314 19.8160629,12.9054794 18.4907456,15.2763977 L18.4907456,7.96801758 Z M17.5108566,9.32178496 L17.5108566,14.0248489 L15.4891434,14.0248489 L15.4891434,9.32178496 L17.5108566,9.32178496 Z M7.74469755,25.8079376 C4.01447295,25.8079376 0.979888916,22.7733536 0.979888916,19.043129 C0.979888916,15.3129043 4.01447295,12.2783203 7.74469755,12.2783203 C11.4746704,12.2783203 14.5092544,15.3129043 14.5092544,19.043129 C14.5092544,22.7733536 11.4746704,25.8079376 7.74469755,25.8079376 L7.74469755,25.8079376 Z M15.4891434,17.748024 L15.4891434,15.0044861 L17.5108566,15.0044861 L17.5108566,17.748024 L15.4891434,17.748024 Z M25.2553024,25.8079376 C21.5253296,25.8079376 18.4907456,22.7733536 18.4907456,19.043129 C18.4907456,15.3129043 21.5253296,12.2783203 25.2553024,12.2783203 C28.9855271,12.2783203 32.0201111,15.3129043 32.0201111,19.043129 C32.0201111,22.7733536 28.9855271,25.8079376 25.2553024,25.8079376 Z"
                      id="Shape"></path>
                <path d="M29.0608062,15.5684509 C28.8445358,15.7310943 28.8014832,16.0382538 28.9641266,16.2545242 C29.3407745,16.7545395 29.6071472,17.3139725 29.7561951,17.9084015 C29.5139923,18.8782196 28.9553147,19.7566452 28.1725616,20.3906021 C27.3510361,21.056282 26.3150024,21.4228592 25.2553024,21.4228592 C24.1958542,21.4228592 23.1595688,21.056282 22.3377915,20.3906021 C21.5562973,19.7576523 20.9978714,18.8809891 20.7551651,17.9129333 C21.2612229,15.8990249 23.0865555,14.4032593 25.2553024,14.4032593 C26.1850891,14.4032593 27.0821457,14.6771851 27.8490372,15.1953277 C28.0733643,15.3468933 28.3780059,15.2879791 28.5293198,15.0636521 C28.6808853,14.839325 28.6219711,14.534935 28.397644,14.3833694 C27.4681091,13.755455 26.3814697,13.4233704 25.2553024,13.4233704 C22.156517,13.4233704 19.6355439,15.9443436 19.6355439,19.043129 C19.6355439,22.1419144 22.156517,24.6628876 25.2553024,24.6628876 C28.3540878,24.6628876 30.875061,22.1419144 30.875061,19.043129 C30.875061,17.8132324 30.4848175,16.6450195 29.7466278,15.6651306 C29.5842361,15.4488602 29.2770767,15.4055557 29.0608062,15.5684509 Z M25.2553024,23.6829986 C23.0732117,23.6829986 21.2390671,22.1683502 20.7466049,20.1353073 C21.0263214,20.5114517 21.3533707,20.8541107 21.7212066,21.1519546 C22.7169571,21.9586258 23.9720307,22.4027481 25.2555542,22.4027481 C26.538826,22.4027481 27.7938995,21.9586258 28.7896499,21.1519546 C29.1574859,20.8538589 29.484787,20.5112 29.7645035,20.134552 C29.2720413,22.1680984 27.4378967,23.6829986 25.2553024,23.6829986 L25.2553024,23.6829986 Z"
                      id="Shape"></path>
            </g>
        </g>
    </g>
</svg>