<?xml version="1.0" encoding="UTF-8"?>
<svg width="24px" height="24px" viewBox="0 0 24 24" version="1.1" xmlns="http://www.w3.org/2000/svg" xmlns:xlink="http://www.w3.org/1999/xlink">
    <!-- Generator: Sketch 63 (92445) - https://sketch.com -->
    <title>icons/see</title>
    <desc>Created with Sketch.</desc>
    <g id="icons/see" stroke="none" stroke-width="1" fill="none" fill-rule="evenodd">
        <g id="Icon/See" transform="translate(0.000000, 2.000000)">
            <g id="find">
                <path d="M5.63250731,11.1686475 C3.3788452,11.1686475 1.54541016,12.9941798 1.54541016,15.2381279 C1.54541016,17.4820759 3.3788452,19.3076083 5.63250731,19.3076083 C7.88598633,19.3076083 9.71942137,17.4820759 9.71942137,15.2381279 C9.71942137,12.9941798 7.88598633,11.1686475 5.63250731,11.1686475 Z M5.63250731,11.8782222 C7.20959475,11.8782222 8.53692628,12.9611806 8.90515134,14.4193457 C8.72863772,15.1205339 8.32269286,15.755359 7.75433348,16.2138843 C7.15667723,16.6959284 6.40319822,16.9613808 5.63269041,16.9613808 C4.8619995,16.9613808 4.10852053,16.6959284 3.51068114,16.2138843 C2.94232177,15.755359 2.53619386,15.1205339 2.35968019,14.4193457 C2.72790525,12.9611806 4.05523683,11.8782222 5.63250731,11.8782222 L5.63250731,11.8782222 Z M5.63250731,18.5980335 C4.04516602,18.5980335 2.71124269,17.5010368 2.35308839,16.028651 C2.55670167,16.3013961 2.79473878,16.5495285 3.06225586,16.7652085 C3.786438,17.3493497 4.69921875,17.6709555 5.63269041,17.6709555 C6.56597902,17.6709555 7.47875977,17.3493497 8.20294191,16.7652085 C8.47027589,16.5493461 8.70812991,16.3013961 8.91174319,16.0288333 C8.55340575,17.5010368 7.21966552,18.5980335 5.63250731,18.5980335 L5.63250731,18.5980335 Z" id="Shape" fill="#989AA2"></path>
                <path d="M23.6337891,13.2496048 C23.6334229,13.2474171 23.5651245,13.077316 23.5374756,13.0135054 L20.50177,5.6858518 C20.1276855,4.78302187 19.4538574,4.07144165 18.6218262,3.645004 L18.3363647,2.95566638 C18.1508789,2.50826239 17.8394165,2.12922696 17.4347534,1.85939895 C17.0300903,1.59048251 16.5595093,1.44827586 16.0739136,1.44827586 C14.7244263,1.44827586 13.6265259,2.54144392 13.6265259,3.8851145 L13.6265259,4.70316734 C13.069519,5.39232266 12.7349854,6.26689361 12.7349854,7.21821963 L12.7349854,7.4889592 L11.2648315,7.4889592 L11.2648315,7.21821963 C11.2648315,6.26689361 10.9302979,5.39232266 10.373291,4.70316734 L10.373291,3.8851145 C10.373291,2.54144392 9.27539062,1.44827586 7.92590334,1.44827586 C7.44030759,1.44827586 6.96972656,1.59048251 6.56469727,1.85976356 C6.16058348,2.12922696 5.848938,2.50826239 5.66345213,2.95566638 L5.37799073,3.645004 C4.54614258,4.07144165 3.87213136,4.78302187 3.49822997,5.6858518 L2.71893309,7.56680824 C2.64385987,7.74803054 2.73046875,7.95532412 2.91247556,8.03007375 C3.09448242,8.10482342 3.30267333,8.01858786 3.3775635,7.83736551 L4.15686038,5.95640907 C4.67211914,4.71283009 5.87805178,3.90936254 7.22900391,3.90936254 C9.06134034,3.90936254 10.552185,5.39359889 10.552185,7.21821963 L10.552185,12.5106772 C9.58813477,10.793623 7.74426272,9.6298986 5.63232422,9.6298986 C4.30957031,9.6298986 3.09210206,10.0866007 2.12988281,10.8494118 L2.89892578,8.99306805 C2.973999,8.81202805 2.88720703,8.60455217 2.70538331,8.5298025 C2.52355959,8.45505287 2.31518555,8.54147073 2.24011228,8.72251078 L0.462524438,13.013323 C0.434692406,13.0771337 0.358703625,13.2660133 0.355224609,13.2780462 C0.125793469,13.8884409 0,14.5489725 0,15.2381279 C0,18.3303933 2.52667237,20.8461748 5.63250731,20.8461748 C8.73815916,20.8461748 11.2648315,18.3303933 11.2648315,15.2381279 L11.2648315,15.009868 L12.7351685,15.009868 L12.7351685,15.2381279 C12.7351685,18.3303933 15.2618408,20.8461748 18.3674927,20.8461748 C21.4733276,20.8461748 24,18.3303933 24,15.2381279 C24,14.5382159 23.8701782,13.8680214 23.6337891,13.2496048 Z M7.22900391,3.19978781 C6.90673828,3.19978781 6.59143069,3.23807419 6.2876587,3.30990681 L6.32226563,3.22622365 C6.45373538,2.90899343 6.67474364,2.64025929 6.96075441,2.44955655 C7.24786378,2.25867145 7.58166506,2.15766829 7.92590334,2.15766829 C8.88244631,2.15766829 9.66082763,2.93269456 9.66082763,3.8851145 L9.66082763,4.01364742 C8.98406981,3.50334431 8.14160156,3.19978781 7.22900391,3.19978781 Z M16.0740967,2.15766829 C16.4183349,2.15766829 16.7519531,2.25867145 17.0386963,2.44919189 C17.3252564,2.64025929 17.5462646,2.90899343 17.6777344,3.22622365 L17.7123413,3.30990681 C17.4085693,3.23789189 17.0932617,3.19978781 16.770813,3.19978781 C15.8583984,3.19978781 15.0159302,3.50334431 14.3391724,4.01364742 L14.3391724,3.8851145 C14.3391724,2.93269456 15.1173706,2.15766829 16.0740967,2.15766829 L16.0740967,2.15766829 Z M13.447815,7.21821963 C13.447815,5.39359889 14.9384766,3.90936254 16.7709961,3.90936254 C18.1219482,3.90936254 19.3278809,4.71283009 19.8429565,5.95640907 L21.8701172,10.8494118 C20.9078979,10.0866007 19.6902466,9.6298986 18.3674927,9.6298986 C16.2555542,9.6298986 14.4116821,10.793623 13.447815,12.5104949 L13.447815,7.21821963 Z M12.7351685,8.19853393 L12.7351685,11.6042009 L11.2648315,11.6042009 L11.2648315,8.19853393 L12.7351685,8.19853393 Z M5.63250731,20.1367824 C2.91961669,20.1367824 0.712646484,17.939325 0.712646484,15.2381279 C0.712646484,12.5369307 2.91961669,10.3394733 5.63250731,10.3394733 C8.34521484,10.3394733 10.552185,12.5369307 10.552185,15.2381279 C10.552185,17.939325 8.34521484,20.1367824 5.63250731,20.1367824 L5.63250731,20.1367824 Z M11.2648315,14.3002932 L11.2648315,12.3135934 L12.7351685,12.3135934 L12.7351685,14.3002932 L11.2648315,14.3002932 Z M18.3674927,20.1367824 C15.6547852,20.1367824 13.447815,17.939325 13.447815,15.2381279 C13.447815,12.5369307 15.6547852,10.3394733 18.3674927,10.3394733 C21.0803833,10.3394733 23.2873535,12.5369307 23.2873535,15.2381279 C23.2873535,17.939325 21.0803833,20.1367824 18.3674927,20.1367824 Z" id="Shape" fill="#989AA2"></path>
                <path d="M21.1351318,12.7219817 C20.9778443,12.839758 20.9465332,13.0621838 21.0648193,13.2187934 C21.3387451,13.5808734 21.5324707,13.9859801 21.6408691,14.4164286 C21.4647217,15.1187108 21.0584107,15.7548121 20.4891357,16.2138843 C19.8916626,16.6959284 19.1381836,16.9613808 18.3674927,16.9613808 C17.5969849,16.9613808 16.8433228,16.6959284 16.2456665,16.2138843 C15.6773071,15.7555413 15.2711792,15.1207162 15.0946655,14.4197104 C15.4627075,12.9613629 16.7902222,11.8782222 18.3674927,11.8782222 C19.0437012,11.8782222 19.696106,12.0765823 20.2538452,12.451789 C20.4169922,12.5615434 20.6385498,12.5188814 20.7485962,12.3564377 C20.8588257,12.1939939 20.815979,11.9735736 20.652832,11.8638192 C19.9768066,11.4091226 19.1865234,11.1686475 18.3674927,11.1686475 C16.1138306,11.1686475 14.2803955,12.9941798 14.2803955,15.2381279 C14.2803955,17.4820759 16.1138306,19.3076083 18.3674927,19.3076083 C20.6211548,19.3076083 22.4545898,17.4820759 22.4545898,15.2381279 C22.4545898,14.3475131 22.1707763,13.5015659 21.6339112,12.7919911 C21.5158081,12.6353815 21.2924194,12.6040231 21.1351318,12.7219817 Z M18.3674927,18.5980335 C16.7805176,18.5980335 15.4465943,17.5012191 15.08844,16.0290157 C15.2918701,16.3013961 15.5297241,16.5495285 15.7972412,16.7652085 C16.5214233,17.3493497 17.4342041,17.6709555 18.3676758,17.6709555 C19.3009643,17.6709555 20.2137451,17.3493497 20.9379272,16.7652085 C21.2054443,16.5493461 21.4434815,16.3012138 21.6469116,16.0284687 C21.2887573,17.5010368 19.954834,18.5980335 18.3674927,18.5980335 L18.3674927,18.5980335 Z" id="Shape" fill="#989AA2"></path>
                <polygon id="Path" points="0 0 24 0 24 21 0 21"></polygon>
            </g>
        </g>
    </g>
</svg>