<?xml version="1.0" encoding="UTF-8"?>
<svg width="24px" height="24px" viewBox="0 0 24 24" version="1.1" xmlns="http://www.w3.org/2000/svg" xmlns:xlink="http://www.w3.org/1999/xlink">
    <!-- Generator: Sketch 63 (92445) - https://sketch.com -->
    <title>icons/flour</title>
    <desc>Created with Sketch.</desc>
    <defs>
        <linearGradient x1="79.8032587%" y1="31.1553269%" x2="21.3779582%" y2="72.2805751%" id="linearGradient-1">
            <stop stop-color="#37DBE0" offset="0%"></stop>
            <stop stop-color="#1758F1" offset="100%"></stop>
        </linearGradient>
        <linearGradient x1="62.6779292%" y1="31.1553269%" x2="37.8245455%" y2="72.2805751%" id="linearGradient-2">
            <stop stop-color="#37DBE0" offset="0%"></stop>
            <stop stop-color="#1758F1" offset="100%"></stop>
        </linearGradient>
        <linearGradient x1="85.5959764%" y1="31.1553269%" x2="15.8148281%" y2="72.2805751%" id="linearGradient-3">
            <stop stop-color="#37DBE0" offset="0%"></stop>
            <stop stop-color="#1758F1" offset="100%"></stop>
        </linearGradient>
    </defs>
    <g id="icons/flour" stroke="none" stroke-width="1" fill="none" fill-rule="evenodd">
        <g id="Icon/flour" transform="translate(-1.000000, 0.000000)">
            <g id="flour">
                <path d="M22.5714611,8.56219481 C23.596242,8.46459961 24.4008969,7.58935547 24.4008969,6.52697756 C24.4008969,5.39978025 23.4946872,4.48260497 22.380842,4.48260497 L22.3091563,4.48260497 C22.226428,4.00506591 22.0162582,3.58319091 21.6969306,3.26568605 C21.2718846,2.84307863 20.6685292,2.62701417 19.9518523,2.63928225 L19.7952659,2.64221194 C17.6522952,2.68139648 17.2066123,2.68963622 13.6728287,0.8567505 C11.442242,-0.300659156 8.86644121,-0.284362781 6.95047552,0.899597156 C5.60401364,1.73144531 4.7770927,3.01922606 4.63172983,4.48242188 L4.49777153,4.48242188 C3.38392641,4.48242188 2.47771662,5.39959716 2.47771662,6.52697756 C2.47771662,7.58935547 3.28237151,8.46459961 4.30715246,8.56219481 L3.87468441,18.5293579 C2.79215655,20.4554443 2.52623125,21.9276123 3.08414947,22.906311 C3.36872029,23.4052734 4.0048412,24 5.42063556,24 L21.4592452,24 C22.8750395,24 23.5113414,23.4052734 23.7957313,22.906311 C24.3534685,21.9276123 24.0870001,20.4550781 23.0039291,18.5291748 L22.5714611,8.56219481 Z M3.4036581,6.52697756 C3.4036581,5.91613772 3.89441609,5.41918945 4.49777153,5.41918945 L11.5895962,5.41918945 C11.8452031,5.41918945 12.0524764,5.2095337 12.0524764,4.95080569 C12.0524764,4.69226072 11.8452031,4.48260497 11.5895962,4.48260497 L5.56418815,4.48260497 C5.70792181,3.35211183 6.37101539,2.35510256 7.43308746,1.69885256 C9.07570579,0.683898938 11.3046632,0.680603016 13.250317,1.69024659 C16.9911929,3.63043214 17.5887555,3.61926272 19.8121012,3.57861328 L19.9683255,3.57568359 C20.4364555,3.56744386 20.8006772,3.68792723 21.047957,3.9336548 C21.1906045,4.07537841 21.2965039,4.26525881 21.3587764,4.48242188 L15.2890174,4.48242188 C15.0334105,4.48242188 14.8261372,4.69226072 14.8261372,4.95080569 C14.8261372,5.20935056 15.0334105,5.41900636 15.2890174,5.41900636 L22.380842,5.41900636 C22.9841974,5.41900636 23.4749555,5.91613772 23.4749555,6.52697756 C23.4749555,7.13781741 22.9841974,7.63476568 22.380842,7.63476568 L4.49777153,7.63476568 C3.89441609,7.63494872 3.4036581,7.1380005 3.4036581,6.52697756 Z M22.9934297,22.4384766 C22.6990835,22.9550171 21.9967076,23.0634155 21.4592452,23.0634155 L5.42063556,23.0634155 C4.88317316,23.0634155 4.18079723,22.9550171 3.88626999,22.4384766 C3.50684217,21.7730713 3.80752422,20.515686 4.73292262,18.8981323 C4.77039475,18.8327637 4.79157467,18.7593384 4.7948331,18.684082 L5.23345602,8.5715332 L21.6449765,8.5715332 L22.0837804,18.684082 C22.0870389,18.7595215 22.1082188,18.8329468 22.1455099,18.8981323 C23.0716324,20.5158691 23.3728575,21.7732544 22.9934297,22.4384766 L22.9934297,22.4384766 Z" id="Shape" fill="url(#linearGradient-1)"></path>
                <path d="M16.4396106,12.7241821 C16.113404,12.3938599 15.6112414,12.3160401 15.0189285,12.500061 C15.0258075,12.4059448 15.029971,12.3109131 15.029971,12.2151489 C15.029971,10.8317871 14.32669,9.74798583 13.4288074,9.74798583 C12.5316488,9.74798583 11.8289108,10.8317871 11.8289108,12.2151489 C11.8289108,12.3109131 11.8330744,12.4059448 11.8399534,12.500061 C11.2476405,12.3160401 10.7452968,12.3938599 10.4192713,12.7241821 C9.94697778,13.2022705 10.0087072,14.0423584 10.5430922,14.9234619 C10.4996463,14.9555054 10.4580106,14.9906616 10.4192713,15.0300293 C9.78405552,15.6729126 10.1403122,17.0029907 11.2480025,18.1245117 C11.7626558,18.6439819 12.3451933,19.0213623 12.891888,19.1898193 C12.9159643,19.199707 12.9407647,19.2086792 12.9657461,19.2171021 L12.9657461,20.4550781 C12.9657461,20.713623 13.1730194,20.9232788 13.4288074,20.9232788 C13.6844143,20.9232788 13.8916876,20.713623 13.8916876,20.4550781 L13.8916876,19.2172852 C13.917031,19.2088623 13.9420124,19.1998901 13.9662698,19.1896362 C14.5135075,19.0211792 15.0962261,18.6439819 15.6112414,18.1241455 C16.7185697,17.0029907 17.0748263,15.6729126 16.4396106,15.0300293 C16.4008713,14.9906616 16.3594166,14.9555054 16.3157897,14.9234619 C16.8501747,14.0421753 16.9120851,13.2022705 16.4396106,12.7241821 L16.4396106,12.7241821 Z M15.7846631,13.3861084 C15.901062,13.5038452 15.8317295,14.0557251 15.3232311,14.7328491 C15.1975999,14.7535401 15.0670811,14.786499 14.9318557,14.8337402 C14.5891758,14.9533081 14.2327381,15.1543579 13.8918686,15.4171143 L13.8918686,14.380188 C13.9371248,14.3296509 13.9852773,14.2781982 14.0370504,14.2250977 C14.2235059,14.036499 14.4244433,13.8689575 14.6259239,13.7316284 C14.6262859,13.7314453 14.6266479,13.7312622 14.626829,13.730896 C14.8331971,13.5904541 15.0402894,13.4813232 15.2339859,13.4137573 C15.5292372,13.3104858 15.7263732,13.3271484 15.7846631,13.3861084 L15.7846631,13.3861084 Z M13.4288074,10.6845703 C13.6976291,10.6845703 14.1040296,11.295044 14.1040296,12.2151489 C14.1040296,12.510315 14.0618508,12.7935791 13.9821999,13.0437012 C13.792667,13.1826782 13.6067547,13.3410645 13.4293504,13.515564 C13.2523082,13.3410645 13.0663958,13.1826782 12.8765009,13.0435181 C12.79685,12.793396 12.7548523,12.5101318 12.7548523,12.2151489 C12.7548523,11.295044 13.1605287,10.6845703 13.4288074,10.6845703 L13.4288074,10.6845703 Z M11.0742187,13.3861084 C11.1325087,13.3271484 11.3298257,13.3104858 11.625077,13.4137573 C11.8164201,13.4805908 12.0209781,13.5878906 12.2248119,13.725769 C12.2268032,13.7272339 12.2287944,13.7286987 12.2309668,13.7301636 C12.4328093,13.8674927 12.6335658,14.034668 12.8194781,14.2225342 C12.869984,14.274353 12.9188607,14.3269043 12.9657461,14.3798218 L12.9657461,15.4161987 C12.6252386,15.1538086 12.269344,14.953125 11.9270262,14.8337402 C11.7918008,14.786499 11.6612819,14.7535401 11.5356508,14.7328491 C11.0271523,14.0557251 10.9578198,13.5038452 11.0742187,13.3861084 L11.0742187,13.3861084 Z M11.9025879,17.4620362 C11.0657106,16.6148071 10.9406225,15.8270874 11.0742187,15.6919556 C11.1326897,15.6328125 11.3298257,15.6161499 11.625077,15.7190552 C12.0081253,15.8527222 12.4442139,16.1484375 12.8216504,16.5305786 C12.8708891,16.5802002 12.9188607,16.632019 12.9657461,16.6847534 L12.9657461,18.2208252 C12.6178166,18.0710449 12.2409231,17.8035278 11.9025879,17.4620362 L11.9025879,17.4620362 Z M14.956837,17.4616699 C14.6179588,17.8037109 14.2403412,18.0714112 13.8918686,18.2211914 L13.8918686,16.6849365 C13.9378489,16.633667 13.9863635,16.5822143 14.0372314,16.5305786 C14.414668,16.1484375 14.8507566,15.8527222 15.2338049,15.7190552 C15.5290562,15.6161499 15.7263732,15.6328125 15.7846631,15.6919556 C15.9182594,15.8270874 15.7931713,16.6148071 14.956837,17.4616699 Z" id="Shape" fill="url(#linearGradient-2)"></path>
                <path d="M13.4393068,5.41918945 L13.448539,5.41918945 C13.704146,5.41918945 13.9114193,5.2095337 13.9114193,4.95080569 C13.9114193,4.69226072 13.704146,4.48260497 13.448539,4.48260497 L13.4393068,4.48260497 C13.1835188,4.48260497 12.9764266,4.69226072 12.9764266,4.95080569 C12.9764266,5.2095337 13.1835188,5.41918945 13.4393068,5.41918945 Z" id="Path" fill="url(#linearGradient-3)"></path>
                <polygon id="Path" points="0 0 27 0 27 24 0 24"></polygon>
            </g>
        </g>
    </g>
</svg>