<?xml version="1.0" encoding="UTF-8"?>
<svg width="27px" height="29px" viewBox="0 0 27 29" version="1.1" xmlns="http://www.w3.org/2000/svg" xmlns:xlink="http://www.w3.org/1999/xlink">
    <!-- Generator: Sketch 63 (92445) - https://sketch.com -->
    <title>flour</title>
    <desc>Created with Sketch.</desc>
    <defs>
        <linearGradient x1="80.4923286%" y1="31.1553269%" x2="20.7161988%" y2="72.2805751%" id="linearGradient-1">
            <stop stop-color="#37DBE0" offset="0%"></stop>
            <stop stop-color="#1758F1" offset="100%"></stop>
        </linearGradient>
        <linearGradient x1="62.9710508%" y1="31.1553269%" x2="37.5430414%" y2="72.2805751%" id="linearGradient-2">
            <stop stop-color="#37DBE0" offset="0%"></stop>
            <stop stop-color="#1758F1" offset="100%"></stop>
        </linearGradient>
        <linearGradient x1="85.7172814%" y1="31.5184133%" x2="15.6983309%" y2="71.8512881%" id="linearGradient-3">
            <stop stop-color="#37DBE0" offset="0%"></stop>
            <stop stop-color="#1758F1" offset="100%"></stop>
        </linearGradient>
    </defs>
    <g id="_Assets" stroke="none" stroke-width="1" fill="none" fill-rule="evenodd">
        <g id="Icon/flour" transform="translate(-3.000000, 0.000000)">
            <g id="flour" transform="translate(3.000000, 0.000000)">
                <path d="M24.5873413,10.3459854 C25.8398514,10.2280579 26.8233185,9.17047119 26.8233185,7.88676455 C26.8233185,6.52473447 25.7157288,5.416481 24.3543625,5.416481 L24.2667465,5.416481 C24.1656342,4.83945464 23.9087601,4.32968901 23.5184707,3.94603731 C22.99897,3.43538667 22.2615356,3.17430879 21.3855972,3.18913272 L21.1942139,3.19267276 C18.5750274,3.24002075 18.030304,3.2499771 13.7112351,1.03524019 C10.9849624,-0.36329648 7.83676147,-0.343605027 5.49502563,1.08701323 C3.84935,2.09216309 2.83866885,3.64823149 2.66100313,5.41625977 L2.49727632,5.41625977 C1.13591006,5.41625977 0.0283203125,6.52451323 0.0283203125,7.88676455 C0.0283203125,9.17047119 1.0117874,10.2280579 2.26429746,10.3459854 L1.73572539,22.3896408 C0.412635789,24.7169952 0.0876159668,26.4958648 0.76951602,27.6784592 C1.1173248,28.2813721 1.89480591,29 3.62522124,29 L23.2279663,29 C24.9583816,29 25.736084,28.2813721 26.0836716,27.6784592 C26.7653503,26.4958648 26.4396667,24.7165527 25.1159134,22.3894195 L24.5873413,10.3459854 Z M1.16002656,7.88676455 C1.16002656,7.14866641 1.75984189,6.54818726 2.49727632,6.54818726 L11.165062,6.54818726 C11.4774704,6.54818726 11.7308044,6.29485322 11.7308044,5.98222354 C11.7308044,5.66981504 11.4774704,5.416481 11.165062,5.416481 L3.80067441,5.416481 C3.97634888,4.05046846 4.78679658,2.84574893 6.08488467,2.05278018 C8.0925293,0.826377883 10.8168106,0.822395311 13.1948318,2.0423813 C17.7670136,4.38677217 18.4973679,4.37327579 21.2147903,4.32415771 L21.4057312,4.32061768 C21.97789,4.31066133 22.4230499,4.45624541 22.7252808,4.75316621 C22.8996277,4.92441557 23.0290603,5.1538544 23.1051712,5.41625977 L15.6865769,5.41625977 C15.3741684,5.41625977 15.1208344,5.66981504 15.1208344,5.98222354 C15.1208344,6.29463193 15.3741684,6.54796602 15.6865769,6.54796602 L24.3543625,6.54796602 C25.0917969,6.54796602 25.6916123,7.14866641 25.6916123,7.88676455 C25.6916123,8.6248627 25.0917969,9.22534186 24.3543625,9.22534186 L2.49727632,9.22534186 C1.75984189,9.22556304 1.16002656,8.62508394 1.16002656,7.88676455 Z M25.1030808,27.1131592 C24.7433243,27.7373123 23.8848648,27.8682937 23.2279663,27.8682937 L3.62522124,27.8682937 C2.96832275,27.8682937 2.10986328,27.7373123 1.74988554,27.1131592 C1.28614043,26.3091278 1.65364072,24.7897873 2.7846832,22.8352432 C2.83048247,22.7562561 2.85636905,22.6675339 2.86035156,22.5765991 L3.39644624,10.3572693 L23.4549713,10.3572693 L23.9912872,22.5765991 C23.9952698,22.6677551 24.0211563,22.7564773 24.0667343,22.8352432 C25.1986618,24.7900085 25.5668259,26.3093491 25.1030808,27.1131592 L25.1030808,27.1131592 Z" id="Shape" fill="url(#linearGradient-1)"></path>
                <path d="M17.0928574,15.3750534 C16.6941604,14.975914 16.0804062,14.8818817 15.3564682,15.1042404 C15.3648758,14.9905166 15.3699646,14.8756866 15.3699646,14.7599716 C15.3699646,13.0884094 14.5103989,11.7788162 13.4129868,11.7788162 C12.3164597,11.7788162 11.4575577,13.0884094 11.4575577,14.7599716 C11.4575577,14.8756866 11.4626465,14.9905166 11.4710541,15.1042404 C10.7471161,14.8818817 10.1331406,14.975914 9.73466495,15.3750534 C9.15741728,15.9527436 9.23286435,16.9678497 9.88600156,18.0325165 C9.83290097,18.0712356 9.78201294,18.1137161 9.73466495,18.1612854 C8.95829009,18.9381027 9.39371489,20.5452805 10.7475586,21.9004517 C11.3765793,22.5281448 12.0885696,22.9841461 12.756752,23.1876983 C12.7861786,23.199646 12.8164902,23.2104874 12.847023,23.220665 L12.847023,24.7165527 C12.847023,25.0289612 13.100357,25.2822952 13.4129868,25.2822952 C13.7253952,25.2822952 13.9787292,25.0289612 13.9787292,24.7165527 L13.9787292,23.2208862 C14.0097046,23.2107086 14.0402374,23.1998672 14.0698853,23.1874771 C14.7387314,22.9839249 15.450943,22.5281448 16.0804062,21.9000092 C17.4338074,20.5452805 17.8692322,18.9381027 17.0928574,18.1612854 C17.0455093,18.1137161 16.9948425,18.0712356 16.9415207,18.0325165 C17.5946579,16.9676285 17.6703262,15.9527436 17.0928574,15.3750534 L17.0928574,15.3750534 Z M16.292366,16.174881 C16.4346313,16.3171463 16.3498916,16.9840012 15.7283936,17.8021927 C15.5748443,17.8271942 15.4153213,17.8670196 15.2500458,17.9241028 C14.8312149,18.0685806 14.3955688,18.3115158 13.9789505,18.6290131 L13.9789505,17.3760605 C14.0342636,17.3149948 14.0931167,17.2528228 14.156395,17.1886597 C14.384285,16.9607696 14.6298752,16.7583237 14.8761292,16.5923843 C14.8765717,16.5921631 14.8770142,16.5919418 14.8772354,16.5914993 C15.1294632,16.4217987 15.382576,16.2899322 15.6193161,16.2082901 C15.9801788,16.0835037 16.2211228,16.1036377 16.292366,16.174881 L16.292366,16.174881 Z M13.4129868,12.9105225 C13.7415466,12.9105225 14.2382583,13.6481781 14.2382583,14.7599716 C14.2382583,15.1166306 14.1867065,15.4589081 14.0893555,15.7611389 C13.8577041,15.9290695 13.6304779,16.1204529 13.4136505,16.3313064 C13.1972656,16.1204529 12.9700394,15.9290695 12.7379456,15.7609177 C12.6405945,15.4586868 12.5892639,15.1164093 12.5892639,14.7599716 C12.5892639,13.6481781 13.0850906,12.9105225 13.4129868,12.9105225 L13.4129868,12.9105225 Z M10.5351562,16.174881 C10.6063995,16.1036377 10.8475647,16.0835037 11.2084274,16.2082901 C11.4422913,16.2890473 11.6923065,16.4187012 11.9414368,16.5853042 C11.9438706,16.5870743 11.9463043,16.5888443 11.9489594,16.5906143 C12.1956558,16.7565537 12.4410248,16.9585571 12.668251,17.1855621 C12.7299805,17.2481766 12.7897187,17.311676 12.847023,17.375618 L12.847023,18.6279068 C12.4308472,18.3108521 11.9958648,18.0683594 11.5774765,17.9241028 C11.4122009,17.8670196 11.2526779,17.8271942 11.0991287,17.8021927 C10.4776306,16.9840012 10.3928909,16.3171463 10.5351562,16.174881 L10.5351562,16.174881 Z M11.5476074,21.0999604 C10.5247574,20.0762253 10.371872,19.1243973 10.5351562,18.961113 C10.6066208,18.8896484 10.8475647,18.8695145 11.2084274,18.9938584 C11.6765976,19.1553726 12.2095947,19.5126953 12.6709061,19.9744492 C12.7310867,20.0344086 12.7897187,20.097023 12.847023,20.1607437 L12.847023,22.0168305 C12.4217758,21.8358459 11.9611282,21.5125961 11.5476074,21.0999604 L11.5476074,21.0999604 Z M15.2805786,21.0995178 C14.866394,21.5128174 14.4048614,21.8362885 13.9789505,22.0172729 L13.9789505,20.1609649 C14.0351486,20.0990143 14.0944443,20.0368423 14.1566162,19.9744492 C14.6179275,19.5126953 15.1509247,19.1553726 15.6190948,18.9938584 C15.9799576,18.8695145 16.2211228,18.8896484 16.292366,18.961113 C16.4556503,19.1243973 16.3027649,20.0762253 15.2805786,21.0995178 Z" id="Shape" fill="url(#linearGradient-2)"></path>
                <path d="M13.4258194,6.54818726 L13.4371033,6.54818726 C13.7495117,6.54818726 14.0028457,6.29485322 14.0028457,5.98222354 C14.0028457,5.66981504 13.7495117,5.416481 13.4371033,5.416481 L13.4258194,5.416481 C13.1131897,5.416481 12.8600769,5.66981504 12.8600769,5.98222354 C12.8600769,6.29485322 13.1131897,6.54818726 13.4258194,6.54818726 Z" id="Path" fill="url(#linearGradient-3)"></path>
            </g>
        </g>
    </g>
</svg>