<?xml version="1.0" encoding="UTF-8"?>
<svg width="24px" height="24px" viewBox="0 0 24 24" version="1.1" xmlns="http://www.w3.org/2000/svg" xmlns:xlink="http://www.w3.org/1999/xlink">
    <!-- Generator: Sketch 63 (92445) - https://sketch.com -->
    <title>icons/yeast</title>
    <desc>Created with Sketch.</desc>
    <defs>
        <linearGradient x1="76.1827497%" y1="31.1553269%" x2="24.8549726%" y2="72.2805751%" id="linearGradient-1">
            <stop stop-color="#37DBE0" offset="0%"></stop>
            <stop stop-color="#1758F1" offset="100%"></stop>
        </linearGradient>
    </defs>
    <g id="icons/yeast" stroke="none" stroke-width="1" fill="none" fill-rule="evenodd">
        <g id="Icon/Hefe" transform="translate(-2.000000, 0.000000)">
            <g id="cube">
                <path d="M13.5469666,0 L3.27272727,6 L3.27272727,18 L13.5469666,24 L23.8212058,18 L23.8212058,6 L13.5469666,0 Z M21.7271118,6.40557862 L13.5469666,11.1828003 L5.36682129,6.40557862 L13.5469666,1.62854006 L21.7271118,6.40557862 Z M4.66697973,7.62561038 L12.8498403,12.4041138 L12.8498403,21.9644165 L4.66697973,17.18573 L4.66697973,7.62561038 Z M14.2440928,21.9644165 L14.2440928,12.4041138 L22.4269534,7.62561037 L22.4269534,17.18573 L14.2440928,21.9644165 Z" id="Shape" fill="url(#linearGradient-1)"></path>
                <polygon id="Path" points="0 0 27 0 27 24 0 24"></polygon>
            </g>
        </g>
    </g>
</svg>