<?xml version="1.0" encoding="UTF-8"?>
<svg width="24px" height="24px" viewBox="0 0 24 24" version="1.1" xmlns="http://www.w3.org/2000/svg" xmlns:xlink="http://www.w3.org/1999/xlink">
    <!-- Generator: Sketch 63 (92445) - https://sketch.com -->
    <title>icons/tomato-sauce</title>
    <desc>Created with Sketch.</desc>
    <defs>
        <linearGradient x1="85.7172814%" y1="35.1103817%" x2="15.6983309%" y2="67.604405%" id="linearGradient-1">
            <stop stop-color="#37DBE0" offset="0%"></stop>
            <stop stop-color="#1758F1" offset="100%"></stop>
        </linearGradient>
        <linearGradient x1="62.0899446%" y1="31.1553269%" x2="38.3892261%" y2="72.2805751%" id="linearGradient-2">
            <stop stop-color="#37DBE0" offset="0%"></stop>
            <stop stop-color="#1758F1" offset="100%"></stop>
        </linearGradient>
    </defs>
    <g id="icons/tomato-sauce" stroke="none" stroke-width="1" fill="none" fill-rule="evenodd">
        <g id="Icon/TomatoSauce" transform="translate(-1.000000, 0.000000)">
            <g id="ketchup">
                <path d="M15.4879869,4.30696875 L10.0221408,2.09545313 C9.17013707,1.75078125 8.61954386,0.92821875 8.61954386,0 L7.22927397,0 C7.22927397,1.50660938 8.12284677,2.84165625 9.50574822,3.40115625 L11.7445925,4.30696875 L5.74339986,4.30696875 L5.74339986,24 L19.7065755,24 L19.7065755,4.30696875 L15.4879869,4.30696875 Z M18.3162592,22.59375 L7.13366974,22.59375 L7.13366974,13.5178594 L8.07951669,13.5178594 C8.32879208,14.8142344 9.23737979,16.0677188 10.421519,16.6649531 C10.7132903,16.8121875 11.4885511,17.203125 12.7249645,17.203125 C13.967217,17.203125 14.7543414,16.8031406 15.0130707,16.6717031 C16.2041149,16.0663594 17.118171,14.8106719 17.3696245,13.5178594 L18.3162592,13.5178594 L18.3162592,22.59375 L18.3162592,22.59375 Z M9.40124627,12.8190469 C9.40124627,11.449875 10.1800755,10.5651563 11.3853468,10.5651563 C11.7580318,10.5651563 12.1124579,10.6460156 12.4103464,10.7989219 L12.7249645,10.9604063 L13.0395826,10.7989219 C13.3374711,10.6460156 13.6918972,10.5651563 14.0645822,10.5651563 C15.2698999,10.5651563 16.048729,11.4498281 16.048729,12.8190469 C16.048729,13.8017812 15.3196715,14.9421094 14.3889785,15.415125 C14.1834039,15.5195156 13.637584,15.796875 12.7249645,15.796875 C11.8159597,15.796875 11.2734764,15.5233125 11.0418574,15.4065 C10.1218232,14.9424844 9.40124627,13.8059062 9.40124627,12.8190469 Z M18.3162592,12.1116094 L17.3861223,12.1116094 C17.2685982,11.3369063 16.9542118,10.6672969 16.4580708,10.1498906 C15.8451472,9.51079688 14.9951825,9.15885938 14.0645822,9.15885938 C13.8461245,9.15885938 13.6304009,9.17789062 13.4200994,9.21370313 L13.4200994,8.16121875 L12.0298295,8.16121875 L12.0298295,9.21370313 C11.8195281,9.17784375 11.6038045,9.15885938 11.3853468,9.15885938 C10.4547464,9.15885938 9.60473544,9.51084375 8.99185813,10.1498906 C8.49571715,10.6672969 8.18133079,11.3368594 8.06380664,12.1116094 L7.13371609,12.1116094 L7.13371609,5.71321875 L18.3151007,5.71321875 L18.3162592,5.71321875 L18.3162592,12.1116094 L18.3162592,12.1116094 Z" id="Shape" fill="url(#linearGradient-2)"></path>
                <polygon id="Path" points="0 0 27 0 27 24 0 24"></polygon>
            </g>
        </g>
    </g>
</svg>