<?xml version="1.0" encoding="UTF-8"?>
<svg width="18px" height="29px" viewBox="0 0 18 29" version="1.1" xmlns="http://www.w3.org/2000/svg" xmlns:xlink="http://www.w3.org/1999/xlink">
    <!-- Generator: Sketch 63 (92445) - https://sketch.com -->
    <title>ketchup</title>
    <desc>Created with Sketch.</desc>
    <defs>
        <linearGradient x1="63.7602844%" y1="31.1553269%" x2="36.7850882%" y2="72.2805751%" id="linearGradient-1">
            <stop stop-color="#37DBE0" offset="0%"></stop>
            <stop stop-color="#1758F1" offset="100%"></stop>
        </linearGradient>
        <linearGradient x1="62.3694717%" y1="31.1553269%" x2="38.1207777%" y2="72.2805751%" id="linearGradient-2">
            <stop stop-color="#37DBE0" offset="0%"></stop>
            <stop stop-color="#1758F1" offset="100%"></stop>
        </linearGradient>
    </defs>
    <g id="_Assets" stroke="none" stroke-width="1" fill="none" fill-rule="evenodd">
        <g id="Icon/TomatoSauce" transform="translate(-7.000000, 0.000000)" fill="url(#linearGradient-2)">
            <g id="ketchup" transform="translate(7.000000, 0.000000)">
                <path d="M11.9297617,5.20425391 L5.2492832,2.53200586 C4.20794531,2.11552734 3.53499805,1.12159766 3.53499805,0 L1.8357793,0 C1.8357793,1.82048633 2.92792383,3.43366797 4.61813672,4.10973047 L7.35450195,5.20425391 L0.0197109375,5.20425391 L0.0197109375,29 L17.0858145,29 L17.0858145,5.20425391 L11.9297617,5.20425391 Z M15.3865391,27.3007812 L1.71892969,27.3007812 L1.71892969,16.3340801 L2.87496484,16.3340801 C3.17963477,17.9005332 4.29013086,19.4151602 5.73741211,20.1368184 C6.09402148,20.3147266 7.0415625,20.7871094 8.55273437,20.7871094 C10.071043,20.7871094 11.033084,20.3037949 11.3493086,20.1449746 C12.8050293,19.4135176 13.922209,17.8962285 14.229541,16.3340801 L15.3865391,16.3340801 L15.3865391,27.3007812 L15.3865391,27.3007812 Z M4.49041211,15.4896816 C4.49041211,13.8352656 5.44231445,12.7662305 6.91542383,12.7662305 C7.37092773,12.7662305 7.80411523,12.8639355 8.16820117,13.0486973 L8.55273437,13.2438242 L8.93726758,13.0486973 C9.30135352,12.8639355 9.73454102,12.7662305 10.1900449,12.7662305 C11.6632109,12.7662305 12.6151133,13.835209 12.6151133,15.4896816 C12.6151133,16.6771523 11.724043,18.0550488 10.5865293,18.6266094 C10.3352715,18.752748 9.6681582,19.0878906 8.55273437,19.0878906 C7.44172852,19.0878906 6.77869336,18.7573359 6.49560352,18.6161875 C5.37111719,18.055502 4.49041211,16.6821367 4.49041211,15.4896816 Z M15.3865391,14.6348613 L14.2497051,14.6348613 C14.1060645,13.6987617 13.7218145,12.8896504 13.1154199,12.2644512 C12.366291,11.4922129 11.3274453,11.0669551 10.1900449,11.0669551 C9.92304102,11.0669551 9.65937891,11.0899512 9.40234375,11.1332246 L9.40234375,9.86147266 L7.703125,9.86147266 L7.703125,11.1332246 C7.44608984,11.0898945 7.18242773,11.0669551 6.91542383,11.0669551 C5.77802344,11.0669551 4.73912109,11.4922695 3.99004883,12.2644512 C3.3836543,12.8896504 2.9994043,13.6987051 2.85576367,14.6348613 L1.71898633,14.6348613 L1.71898633,6.90347266 L15.385123,6.90347266 L15.3865391,6.90347266 L15.3865391,14.6348613 L15.3865391,14.6348613 Z" id="Shape"></path>
            </g>
        </g>
    </g>
</svg>