<?xml version="1.0" encoding="UTF-8"?>
<svg width="24px" height="24px" viewBox="0 0 24 24" version="1.1" xmlns="http://www.w3.org/2000/svg" xmlns:xlink="http://www.w3.org/1999/xlink">
    <!-- Generator: Sketch 63 (92445) - https://sketch.com -->
    <title>icons/toiletpaper</title>
    <desc>Created with Sketch.</desc>
    <defs>
        <linearGradient x1="85.7172814%" y1="31.1553269%" x2="15.6983309%" y2="72.2805751%" id="linearGradient-1">
            <stop stop-color="#37DBE0" offset="0%"></stop>
            <stop stop-color="#1758F1" offset="100%"></stop>
        </linearGradient>
        <linearGradient x1="52.9156964%" y1="31.1553269%" x2="47.1998637%" y2="72.2805751%" id="linearGradient-2">
            <stop stop-color="#37DBE0" offset="0%"></stop>
            <stop stop-color="#1758F1" offset="100%"></stop>
        </linearGradient>
    </defs>
    <g id="icons/toiletpaper" stroke="none" stroke-width="1" fill="none" fill-rule="evenodd">
        <g id="room-24px">
            <g id="Group">
                <path d="M19.7142544,0 L5.14285346,0 C2.2592119,0 0,3.76505177 0,8.57140647 L0,23.1428387 C0,23.6166037 0.38339548,24 0.857159436,24 L16.2857198,24 C16.7594838,24 17.1428792,23.6166553 17.1428792,23.1428387 L17.1428792,17.1422455 L19.714306,17.1428645 C22.1576591,17.1428645 24,13.4581748 24,8.57145805 C24,3.68474126 22.1576075,0 19.7142544,0 Z M15.4285604,8.57140647 L15.4285604,22.2856774 L1.71426729,22.2856774 L1.71426729,8.57140647 C1.71426729,4.53009065 3.52148207,1.71427098 5.14285346,1.71427098 L17.1067215,1.71427098 C16.0799665,3.25089943 15.4285088,5.68977034 15.4285604,8.57140647 Z M19.7142544,15.4285935 C18.665423,15.4285935 17.1428277,12.7575597 17.1428277,8.57145805 C17.1428277,4.38535636 18.665423,1.71432256 19.7142544,1.71432256 C20.7630858,1.71432256 22.2856811,4.38535636 22.2856811,8.57145805 C22.2856811,12.7575597 20.7630858,15.4285935 19.7142544,15.4285935 Z" id="Shape" fill="url(#linearGradient-1)"></path>
                <path d="M20.7070947,6.02514635 C21.0976351,7.3919555 21.0976351,9.60803134 20.7070947,10.9748931 C20.3165543,12.3417023 19.6834457,12.3417023 19.2929053,10.9748931 C18.9023649,9.60808399 18.9023649,7.39200815 19.2929053,6.02514635 C19.6833855,4.65828455 20.3165543,4.65828455 20.7070947,6.02514635" id="Path" fill="url(#linearGradient-2)"></path>
            </g>
            <polygon id="Path" points="0 0 24 0 24 24 0 24"></polygon>
        </g>
    </g>
</svg>