<?xml version="1.0" encoding="UTF-8"?>
<svg width="29px" height="29px" viewBox="0 0 29 29" version="1.1" xmlns="http://www.w3.org/2000/svg" xmlns:xlink="http://www.w3.org/1999/xlink">
    <!-- Generator: Sketch 63 (92445) - https://sketch.com -->
    <title>toilet-paper-2</title>
    <desc>Created with Sketch.</desc>
    <defs>
        <linearGradient x1="85.7172814%" y1="31.1553269%" x2="15.6983309%" y2="72.2805751%" id="linearGradient-1">
            <stop stop-color="#37DBE0" offset="0%"></stop>
            <stop stop-color="#1758F1" offset="100%"></stop>
        </linearGradient>
        <linearGradient x1="85.7172814%" y1="31.1553269%" x2="15.6983309%" y2="72.2805751%" id="linearGradient-2">
            <stop stop-color="#37DBE0" offset="0%"></stop>
            <stop stop-color="#1758F1" offset="100%"></stop>
        </linearGradient>
        <linearGradient x1="52.2324056%" y1="31.1553269%" x2="47.8560731%" y2="72.2805751%" id="linearGradient-3">
            <stop stop-color="#37DBE0" offset="0%"></stop>
            <stop stop-color="#1758F1" offset="100%"></stop>
        </linearGradient>
    </defs>
    <g id="_Assets" stroke="none" stroke-width="1" fill="none" fill-rule="evenodd">
        <g id="Icon/ToiletPaper" transform="translate(-2.000000, 0.000000)">
            <g id="toilet-paper-2" transform="translate(2.000000, 0.000000)">
                <path d="M23.7853519,0 L6.20487983,0 C2.72575107,0 0,4.54254506 0,10.3414249 L0,27.921897 C0,28.4934957 0.46256867,28.9560644 1.03416738,28.9560644 L19.6488069,28.9560644 C20.2204056,28.9560644 20.6829742,28.4935579 20.6829742,27.921897 L20.6829742,20.6821652 L23.7854142,20.682912 C26.7333326,20.682912 28.9561266,16.237324 28.9561266,10.3414871 C28.9561266,4.44565021 26.7332704,0 23.7853519,0 Z M18.6146395,10.3414249 L18.6146395,26.8877296 L2.06827253,26.8877296 L2.06827253,10.3414249 C2.06827253,5.46556652 4.2486867,2.06827253 6.20487983,2.06827253 L20.6393498,2.06827253 C19.4005644,3.92221888 18.6145773,6.86472318 18.6146395,10.3414249 Z M23.7853519,18.6146395 C22.5199313,18.6146395 20.682912,15.39203 20.682912,10.3414871 C20.682912,5.29094421 22.5199313,2.06833476 23.7853519,2.06833476 C25.0507725,2.06833476 26.8877918,5.29094421 26.8877918,10.3414871 C26.8877918,15.39203 25.0507725,18.6146395 23.7853519,18.6146395 Z" id="Shape" fill="url(#linearGradient-2)"></path>
                <path d="M24.5166373,7.41646996 C24.9205215,9.03188197 24.9205215,11.65103 24.5166373,13.2665043 C24.1127532,14.8819163 23.4580129,14.8819163 23.0541288,13.2665043 C22.6502446,11.6510923 22.6502446,9.03194421 23.0541288,7.41646996 C23.4579506,5.80099571 24.1127532,5.80099571 24.5166373,7.41646996" id="Path" fill="url(#linearGradient-3)"></path>
            </g>
        </g>
    </g>
</svg>