<?xml version="1.0" encoding="UTF-8"?>
<svg width="24px" height="24px" viewBox="0 0 24 24" version="1.1" xmlns="http://www.w3.org/2000/svg" xmlns:xlink="http://www.w3.org/1999/xlink">
    <!-- Generator: Sketch 63 (92445) - https://sketch.com -->
    <title>icons/milk</title>
    <desc>Created with Sketch.</desc>
    <defs>
        <linearGradient x1="59.70821%" y1="31.1553269%" x2="40.6765634%" y2="72.2805751%" id="linearGradient-1">
            <stop stop-color="#37DBE0" offset="0%"></stop>
            <stop stop-color="#1758F1" offset="100%"></stop>
        </linearGradient>
    </defs>
    <g id="icons/milk" stroke="none" stroke-width="1" fill="none" fill-rule="evenodd">
        <g id="Icon/Milk" transform="translate(-1.000000, 0.000000)">
            <g id="milk">
                <path d="M19.8770465,7.68778125 L17.9137074,4.70896875 L17.9137074,4.21875 C18.2976072,4.21875 18.6088423,3.9039375 18.6088423,3.515625 L18.6088423,0.703125 C18.6088423,0.3148125 18.2976072,0 17.9137074,0 L10.962358,0 C10.5784581,0 10.267223,0.3148125 10.267223,0.703125 L10.267223,3.515625 C10.267223,3.9039375 10.5784581,4.21875 10.962358,4.21875 L10.962358,4.70896875 L8.99901882,7.68778125 C8.46441371,8.49895312 8.18181818,9.44301562 8.18181818,10.4179688 L8.18181818,21.890625 C8.18181818,23.0537344 9.11733079,24 10.267223,24 L18.6088423,24 C19.7587346,24 20.6942472,23.0537344 20.6942472,21.890625 L20.6942472,10.4179688 C20.6942472,9.44301562 20.4116516,8.49895312 19.8770465,7.68778125 Z M11.6574929,1.40625 L17.2185724,1.40625 L17.2185724,2.8125 L11.6574929,2.8125 L11.6574929,1.40625 Z M19.3039773,21.890625 C19.3039773,22.2783281 18.9921397,22.59375 18.6088423,22.59375 L10.267223,22.59375 C9.8839256,22.59375 9.57208807,22.2783281 9.57208807,21.890625 L9.57208807,11.6969062 C10.0046474,11.5148438 10.78394,11.25 11.6574929,11.25 C12.981725,11.25 14.0898627,11.8587187 14.0991312,11.863875 C14.1564103,11.8962656 15.52147,12.65625 17.2185724,12.65625 C18.0230753,12.65625 18.7526426,12.4854375 19.3039773,12.3023437 L19.3039773,21.890625 Z M19.3039773,10.8030938 C18.871418,10.9851562 18.0921254,11.25 17.2185724,11.25 C15.8943404,11.25 14.7862026,10.6412813 14.7769341,10.636125 C14.719655,10.6037344 13.3545953,9.84375 11.6574929,9.84375 C10.8566511,9.84375 10.1299107,10.0130156 9.57950284,10.1951719 C9.61787429,9.57834375 9.81482919,8.98523438 10.1558624,8.467875 L12.2358915,5.31192188 C12.312032,5.19642188 12.3526278,5.06071875 12.3526278,4.921875 L12.3526278,4.21875 L16.5234375,4.21875 L16.5234375,4.921875 C16.5234375,5.06067187 16.5640334,5.196375 16.6401738,5.31192187 L18.7202493,8.467875 C19.1021564,9.04725 19.3039773,9.72159375 19.3039773,10.4179688 L19.3039773,10.8030938 Z" id="Shape" fill="url(#linearGradient-1)"></path>
                <polygon id="Path" points="0 0 27 0 27 24 0 24"></polygon>
            </g>
        </g>
    </g>
</svg>