<?xml version="1.0" encoding="UTF-8"?>
<svg width="16px" height="29px" viewBox="0 0 16 29" version="1.1" xmlns="http://www.w3.org/2000/svg" xmlns:xlink="http://www.w3.org/1999/xlink">
    <!-- Generator: Sketch 63 (92445) - https://sketch.com -->
    <title>milk</title>
    <desc>Created with Sketch.</desc>
    <defs>
        <linearGradient x1="59.9326699%" y1="31.1553269%" x2="40.4609998%" y2="72.2805751%" id="linearGradient-1">
            <stop stop-color="#37DBE0" offset="0%"></stop>
            <stop stop-color="#1758F1" offset="100%"></stop>
        </linearGradient>
    </defs>
    <g id="_Assets" stroke="none" stroke-width="1" fill="none" fill-rule="evenodd">
        <g id="Icon/Milk" transform="translate(-10.000000, 0.000000)" fill="url(#linearGradient-1)">
            <g id="milk" transform="translate(10.000000, 0.000000)">
                <path d="M14.294168,9.28940234 L11.8945312,5.69000391 L11.8945312,5.09765625 C12.3637422,5.09765625 12.7441406,4.71725781 12.7441406,4.24804688 L12.7441406,0.849609375 C12.7441406,0.380398437 12.3637422,0 11.8945312,0 L3.3984375,0 C2.92922656,0 2.54882812,0.380398438 2.54882812,0.849609375 L2.54882812,4.24804688 C2.54882812,4.71725781 2.92922656,5.09765625 3.3984375,5.09765625 L3.3984375,5.69000391 L0.998800781,9.28940234 C0.345394531,10.2695684 0,11.4103105 0,12.5883789 L0,26.4511719 C0,27.8565957 1.1434043,29 2.54882812,29 L12.7441406,29 C14.1495645,29 15.2929688,27.8565957 15.2929688,26.4511719 L15.2929688,12.5883789 C15.2929688,11.4103105 14.9475742,10.2695684 14.294168,9.28940234 Z M4.24804688,1.69921875 L11.0449219,1.69921875 L11.0449219,3.3984375 L4.24804688,3.3984375 L4.24804688,1.69921875 Z M13.59375,26.4511719 C13.59375,26.9196465 13.2126152,27.3007812 12.7441406,27.3007812 L2.54882812,27.3007812 C2.08035352,27.3007812 1.69921875,26.9196465 1.69921875,26.4511719 L1.69921875,14.1337617 C2.22790234,13.9137695 3.18037109,13.59375 4.24804688,13.59375 C5.86655273,13.59375 7.22094336,14.3292852 7.23227148,14.3355156 C7.3022793,14.3746543 8.97068555,15.2929688 11.0449219,15.2929688 C12.0282031,15.2929688 12.9198965,15.0865703 13.59375,14.865332 L13.59375,26.4511719 Z M13.59375,13.0537383 C13.0650664,13.2737305 12.1125977,13.59375 11.0449219,13.59375 C9.42641602,13.59375 8.07202539,12.8582148 8.06069727,12.8519844 C7.99068945,12.8128457 6.3222832,11.8945312 4.24804688,11.8945312 C3.26924023,11.8945312 2.38100195,12.0990605 1.70828125,12.319166 C1.75517969,11.573832 1.99590234,10.8571582 2.4127207,10.2320156 L4.95497852,6.41857227 C5.04803906,6.27900977 5.09765625,6.11503516 5.09765625,5.94726563 L5.09765625,5.09765625 L10.1953125,5.09765625 L10.1953125,5.94726562 C10.1953125,6.11497852 10.2449297,6.27895312 10.3379902,6.41857227 L12.8803047,10.2320156 C13.3470801,10.9320937 13.59375,11.7469258 13.59375,12.5883789 L13.59375,13.0537383 Z" id="Shape"></path>
            </g>
        </g>
    </g>
</svg>