<?xml version="1.0" encoding="UTF-8"?>
<svg width="33px" height="27px" viewBox="0 0 33 27" version="1.1" xmlns="http://www.w3.org/2000/svg" xmlns:xlink="http://www.w3.org/1999/xlink">
    <!-- Generator: Sketch 63 (92445) - https://sketch.com -->
    <title>get-money</title>
    <desc>Created with Sketch.</desc>
    <g id="_Assets" stroke="none" stroke-width="1" fill="none" fill-rule="evenodd">
        <g id="Icon/Need" transform="translate(0.000000, -2.000000)" fill="#989AA2">
            <g id="get-money" transform="translate(0.000000, 2.187500)">
                <path d="M16.500709,6.25614258 C14.4631523,6.25614258 12.8131523,7.89737695 12.8131523,9.92249414 C12.8131523,11.9472891 14.4630879,13.5895547 16.500709,13.5895547 C18.5371699,13.5895547 20.1879434,11.9472246 20.1879434,9.92249414 C20.1879434,7.8973125 18.5371699,6.25614258 16.500709,6.25614258 Z M16.500709,12.4895332 C15.0776484,12.4895332 13.919748,11.3378848 13.919748,9.92249414 C13.919748,8.50749023 15.0777129,7.35616406 16.500709,7.35616406 C17.9237695,7.35616406 19.0812832,8.50749023 19.0812832,9.92249414 C19.0813477,11.3378848 17.9237695,12.4895332 16.500709,12.4895332 Z" id="Shape"></path>
                <path d="M21.2714004,0.0229453125 C19.6411875,0.0229453125 18.3211875,1.33598438 18.3211875,2.95588477 C18.3211875,4.57610742 19.6408008,5.8895332 21.2714004,5.8895332 C22.9001309,5.8895332 24.2209043,4.57610742 24.2209043,2.95588477 C24.2209043,1.33598437 22.9001953,0.0229453125 21.2714004,0.0229453125 Z M21.2714004,4.78957617 C20.2546523,4.78957617 19.4274608,3.96676758 19.4274608,2.95588477 C19.4270742,1.94532422 20.2542656,1.12290234 21.2714004,1.12290234 C22.2878262,1.12290234 23.1143086,1.94532422 23.1143086,2.95588477 C23.1143086,3.96676758 22.2878262,4.78957617 21.2714004,4.78957617 Z" id="Shape"></path>
                <path d="M30.5209395,14.0530371 C30.156457,14.0530371 29.8202695,14.1414023 29.5214004,14.274498 C29.0685527,13.6973203 28.364918,13.3240723 27.5714355,13.3233633 C27.161127,13.3229766 26.7842051,13.4315156 26.4600703,13.5936152 L25.4132227,14.2099805 C24.958957,13.6698633 24.2787187,13.32375 23.5153359,13.3233633 C23.1050918,13.3229766 22.7284922,13.4315156 22.404293,13.5936152 L18.6364277,15.8863418 C17.7219668,15.6171855 13.7505586,14.4969902 12.9868535,14.3053066 C12.6036797,14.2092715 12.2692969,14.1303809 11.9954355,14.0743066 C11.8583437,14.0464629 11.7365918,14.0237109 11.628375,14.0072109 C11.5187402,13.9910977 11.4274102,13.9797539 11.3240273,13.9793672 C11.2444277,13.9797539 11.1759141,13.9871016 11.0970234,13.9962539 C10.8114316,14.0340234 10.4051191,14.120584 9.92591016,14.231959 C8.94654492,14.4610898 7.69621875,14.793668 7.00579687,14.9807109 L7.00579687,13.9562285 C7.00579687,13.1495977 6.34250977,12.4895332 5.53143164,12.4895332 L1.4746875,12.4895332 C0.664060547,12.4895332 0,13.1495332 0,13.9562285 L0,25.3229238 C0,26.1295547 0.664060547,26.7896191 1.4746875,26.7896191 L5.53072266,26.7896191 C6.3421875,26.7896191 7.00508789,26.1296191 7.00508789,25.3229238 L7.00508789,24.4403672 C7.88029688,24.6299238 9.82330078,25.0471934 11.8714922,25.4655586 C13.2567187,25.74825 14.6886094,26.0313281 15.8707441,26.2447324 C16.462166,26.3510801 16.9916484,26.4401543 17.4243223,26.5031895 C17.8609922,26.5662246 18.1869961,26.6050898 18.4352051,26.60625 C18.6284355,26.605541 18.8110313,26.5688027 19.0086445,26.5153066 C19.3764141,26.4122461 19.7947793,26.2373848 20.273666,26.005998 C21.9404883,25.1978203 24.3345352,23.6835586 26.5927793,22.1852813 C28.8470273,20.6892598 30.9553535,19.2112852 31.988666,18.5039121 C32.6361621,18.0602168 32.9999355,17.3115293 32.9999355,16.5188203 C32.9992266,15.157377 31.8908262,14.0533594 30.5209395,14.0530371 Z M5.89965234,25.3228594 C5.89965234,25.5215684 5.7305918,25.6895332 5.53078711,25.6895332 L1.4746875,25.6895332 C1.27488281,25.6895332 1.10582227,25.5215684 1.10582227,25.3228594 L1.10582227,13.9562285 C1.10582227,13.7575195 1.27488281,13.5895547 1.4746875,13.5895547 L5.53072266,13.5895547 C5.73052734,13.5895547 5.89958789,13.7575195 5.89958789,13.9562285 L5.89958789,25.3228594 L5.89965234,25.3228594 Z M31.3628262,17.5978945 C30.0919395,18.4683984 27.2487832,20.464834 24.4966348,22.2420645 C23.1219785,23.1301641 21.7693652,23.962834 20.6605781,24.5667598 C20.1069258,24.8685293 19.6130215,25.1127422 19.2177305,25.2755508 C19.0205039,25.3573418 18.8477695,25.4181855 18.711,25.4559551 C18.5749395,25.4944336 18.4727168,25.5072598 18.4352695,25.5065784 C18.3146133,25.5076465 17.9953125,25.4758066 17.5853262,25.4152207 C16.1322305,25.2036855 13.4130176,24.6635039 11.0718223,24.1781074 C9.90032227,23.9349902 8.82053906,23.7058594 8.03395312,23.5367988 C7.57710937,23.4388945 7.2239707,23.3622598 7.00470117,23.3149512 L7.00470117,16.1213379 C7.1124668,16.0920117 7.25439258,16.0534688 7.42454883,16.0073203 C8.0075918,15.8500547 8.89743164,15.6142207 9.69529687,15.4188633 C10.0934883,15.320959 10.4700234,15.2337539 10.7692793,15.17175 C10.9184883,15.1410059 11.0482969,15.116707 11.1483926,15.1009805 C11.2466191,15.0844805 11.3225449,15.079002 11.3233184,15.0797109 C11.3255098,15.0793242 11.3834531,15.082998 11.4622793,15.0951152 C11.7673359,15.1405547 12.3932402,15.2860898 13.1552051,15.4848633 C15.4520566,16.0810547 19.0735488,17.1594199 20.5365703,17.6016328 C21.0425918,17.7534199 21.5012402,17.9822285 21.8015918,18.2598281 C21.9529922,18.3984668 22.0663008,18.5465801 22.1426133,18.7068105 C22.219248,18.86775 22.2621094,19.0422891 22.2628828,19.2549844 C22.2624961,19.686498 22.0887305,20.0723145 21.8041699,20.3557148 C21.5218652,20.6354414 21.1383047,20.8070801 20.7096914,20.8106895 L19.2830215,20.6717285 L14.4122344,20.050207 C14.1090469,20.0117285 13.8314473,20.2243594 13.7929043,20.5254199 C13.7544258,20.8268672 13.9685391,21.1025977 14.2714043,21.1410762 L19.1579824,21.7647246 L20.6705039,21.9121289 L20.6976387,21.9121289 C22.1727773,21.9114199 23.368834,20.7226465 23.369543,19.2552422 C23.370252,18.8856035 23.287752,18.539168 23.1422168,18.2348203 C22.9229473,17.7768809 22.569873,17.4222598 22.1712949,17.1523945 C21.7709121,16.8818203 21.3191602,16.6889766 20.8586426,16.5496289 C20.6379551,16.4828555 20.366543,16.4011289 20.0604551,16.3097988 L22.9101855,14.573625 C23.1048984,14.4779121 23.3043809,14.4240293 23.515207,14.4236418 C23.8727285,14.4232559 24.1953164,14.5611211 24.4395937,14.7841289 L22.9564629,15.6586289 C22.6938809,15.8133809 22.6073848,16.1510508 22.7632324,16.4124727 C22.9194668,16.6735078 23.2586191,16.7596816 23.5211367,16.6046074 L26.9630625,14.5747207 C27.1588711,14.4779121 27.3594492,14.4240293 27.5713711,14.4236418 C27.9530625,14.4232559 28.2962109,14.5812949 28.5444844,14.8321465 L24.5364668,17.1960937 C24.2735625,17.3508457 24.187002,17.6885156 24.3432363,17.9499375 C24.499084,18.2109727 24.8382363,18.2971465 25.1007539,18.1420723 L29.9132109,15.30375 C30.1086328,15.2080371 30.3088242,15.1537676 30.5204238,15.1533809 C30.9006328,15.1537676 31.2409453,15.305168 31.4906367,15.5537637 C31.7399414,15.8027461 31.8928887,16.1408027 31.8932761,16.5195937 C31.8937266,16.9797246 31.6810312,17.3822988 31.3628262,17.5978945 Z" id="Shape"></path>
            </g>
        </g>
    </g>
</svg>