<?xml version="1.0" encoding="UTF-8"?>
<svg width="24px" height="24px" viewBox="0 0 24 24" version="1.1" xmlns="http://www.w3.org/2000/svg" xmlns:xlink="http://www.w3.org/1999/xlink">
    <!-- Generator: Sketch 63 (92445) - https://sketch.com -->
    <title>icons/need</title>
    <desc>Created with Sketch.</desc>
    <g id="icons/need" stroke="none" stroke-width="1" fill="none" fill-rule="evenodd">
        <g id="Icon/Need" transform="translate(0.000000, 2.000000)">
            <g id="get-money" transform="translate(0.000000, -0.588362)">
                <path d="M12.0005156,6.70272394 C10.5186563,6.70272394 9.31865625,7.891204 9.31865625,9.35766817 C9.31865625,10.823899 10.5186094,12.0131258 12.0005156,12.0131258 C13.4815781,12.0131258 14.6821406,10.8238523 14.6821406,9.35766817 C14.6821406,7.89115733 13.4815781,6.70272394 12.0005156,6.70272394 Z M12.0005156,11.2165585 C10.9655625,11.2165585 10.1234531,10.3826062 10.1234531,9.35766817 C10.1234531,8.33301017 10.9656094,7.49929122 12.0005156,7.49929122 C13.0354688,7.49929122 13.8772969,8.33301017 13.8772969,9.35766817 C13.8773438,10.3826062 13.0354688,11.2165585 12.0005156,11.2165585 Z" id="Shape" fill="#989AA2"></path>
                <path d="M15.4701094,2.18902936 C14.2845,2.18902936 13.3245,3.13985075 13.3245,4.31288207 C13.3245,5.48614675 14.2842188,6.43724818 15.4701094,6.43724818 C16.6546406,6.43724818 17.6152031,5.48614675 17.6152031,4.31288207 C17.6152031,3.13985075 16.6546875,2.18902936 15.4701094,2.18902936 Z M15.4701094,5.64072757 C14.7306563,5.64072757 14.1290624,5.04490066 14.1290624,4.31288207 C14.1287813,3.58109685 14.730375,2.98554997 15.4701094,2.98554997 C16.2093281,2.98554997 16.8104063,3.58109685 16.8104063,4.31288207 C16.8104063,5.04490066 16.2093281,5.64072757 15.4701094,5.64072757 Z" id="Shape" fill="#989AA2"></path>
                <path d="M22.1970469,12.348751 C21.9319687,12.348751 21.6874687,12.4127396 21.4701094,12.5091193 C21.1407656,12.091163 20.6290313,11.8208799 20.0519531,11.8203665 C19.7535469,11.8200865 19.4794219,11.8986837 19.2436875,12.0160662 L18.4823437,12.4623996 C18.1519687,12.0712803 17.65725,11.8206466 17.1020625,11.8203665 C16.8037031,11.8200865 16.5298125,11.8986837 16.2940312,12.0160662 L13.5537656,13.6763165 C12.8887031,13.4814102 10.0004062,12.6702343 9.44498437,12.5314289 C9.1663125,12.4618862 8.923125,12.4047586 8.72395312,12.3641531 C8.62425,12.3439904 8.53570312,12.3275148 8.457,12.3155665 C8.37726562,12.3038983 8.31084375,12.2956839 8.23565625,12.2954038 C8.17776562,12.2956839 8.1279375,12.3010046 8.0705625,12.3076321 C7.86285937,12.3349825 7.56735937,12.3976643 7.21884375,12.4783151 C6.50657812,12.6442375 5.59725,12.8850699 5.095125,13.0205148 L5.095125,12.2786482 C5.095125,11.6945362 4.61273437,11.2165585 4.02285937,11.2165585 L1.0725,11.2165585 C0.482953125,11.2165585 0,11.6944896 0,12.2786482 L0,20.5097035 C0,21.0938155 0.482953125,21.5717932 1.0725,21.5717932 L4.02234375,21.5717932 C4.6125,21.5717932 5.09460938,21.0938621 5.09460938,20.5097035 L5.09460938,19.8706107 C5.731125,20.0078759 7.14421875,20.3100366 8.6338125,20.6129907 C9.64125,20.8176983 10.682625,21.0226859 11.5423594,21.17722 C11.9724844,21.2542304 12.3575625,21.3187324 12.6722344,21.3643786 C12.9898125,21.4100247 13.2269063,21.4381685 13.4074219,21.4390086 C13.5479531,21.4384952 13.68075,21.4118916 13.8244688,21.3731531 C14.0919375,21.298523 14.3962031,21.1718993 14.7444844,21.0043434 C15.9567188,20.4191113 17.6978438,19.3225769 19.3402031,18.2376175 C20.9796563,17.1542916 22.5129844,16.0840341 23.2644844,15.5717984 C23.7353906,15.2505018 23.9999531,14.7083488 23.9999531,14.1343182 C23.9994375,13.1484454 23.1933281,12.3489844 22.1970469,12.348751 Z M4.29065625,20.5096568 C4.29065625,20.6535495 4.16770313,20.7751792 4.02239063,20.7751792 L1.0725,20.7751792 C0.9271875,20.7751792 0.804234375,20.6535495 0.804234375,20.5096568 L0.804234375,12.2786482 C0.804234375,12.1347555 0.9271875,12.0131258 1.0725,12.0131258 L4.02234375,12.0131258 C4.16765625,12.0131258 4.29060938,12.1347555 4.29060938,12.2786482 L4.29060938,20.5096568 L4.29065625,20.5096568 Z M22.8093281,14.9157167 C21.8850469,15.5460816 19.8172969,16.9917763 17.8157344,18.2787363 C16.8159844,18.9218429 15.8322656,19.5248108 15.025875,19.9621364 C14.6232187,20.1806591 14.2640156,20.357503 13.9765312,20.4753988 C13.8330937,20.5346268 13.7074687,20.5786861 13.608,20.6060364 C13.5090469,20.6339002 13.4347031,20.6431881 13.4074687,20.6426947 C13.3197187,20.6434681 13.0875,20.6204117 12.7893281,20.5765391 C11.7325312,20.4233585 9.75492187,20.0321925 8.05223437,19.6806985 C7.20023437,19.5046481 6.4149375,19.3387258 5.842875,19.2163026 C5.510625,19.1454064 5.25379687,19.0899122 5.09432812,19.0556543 L5.09432812,13.8464861 C5.17270312,13.8252499 5.27592187,13.7973394 5.39967187,13.7639216 C5.82370312,13.6500396 6.47085937,13.4792633 7.051125,13.3377975 C7.34071875,13.2669013 7.6145625,13.2037528 7.83220312,13.1588534 C7.94071875,13.1365904 8.035125,13.1189947 8.10792187,13.1076065 C8.17935937,13.0956583 8.23457812,13.0916911 8.23514062,13.0922045 C8.23673437,13.0919244 8.278875,13.0945848 8.33620312,13.1033593 C8.5580625,13.1362637 9.01326562,13.2416513 9.56742187,13.3855907 C11.2378594,13.8173155 13.8716719,14.5982006 14.9356875,14.9184238 C15.3037031,15.0283386 15.6372656,15.1940275 15.8557031,15.395048 C15.9658125,15.4954415 16.0482187,15.6026959 16.1037187,15.7187249 C16.1594531,15.8352672 16.190625,15.9616576 16.1911875,16.1156783 C16.1909062,16.4281538 16.0645312,16.7075381 15.8575781,16.912759 C15.6522656,17.1153196 15.3733125,17.2396097 15.0615937,17.2422234 L14.0240156,17.1415965 L10.481625,16.6915292 C10.261125,16.6636655 10.0592344,16.8176395 10.0312031,17.0356489 C10.0032187,17.2539383 10.1589375,17.4536052 10.3792031,17.481469 L13.9330781,17.9330764 L15.0330937,18.0398175 L15.0528281,18.0398175 C16.1256562,18.0393041 16.9955156,17.1784681 16.9960312,16.115865 C16.9965469,15.8481956 16.9365469,15.5973285 16.8307031,15.3769388 C16.6712344,15.0453275 16.4144531,14.7885329 16.1245781,14.5931133 C15.8333906,14.3971802 15.5048437,14.2575348 15.1699219,14.1566278 C15.0094219,14.1082746 14.8120312,14.0490933 14.5894219,13.9829578 L16.6619531,12.7257284 C16.8035625,12.6564191 16.9486406,12.6174005 17.1019687,12.6171199 C17.3619844,12.6168404 17.5965937,12.7166739 17.77425,12.8781623 L16.6956094,13.5114209 C16.5046406,13.6234827 16.4417344,13.8680023 16.5550781,14.0573078 C16.6687031,14.2463332 16.9153594,14.308735 17.1062812,14.1964399 L19.6095,12.7265219 C19.7519062,12.6564191 19.8977812,12.6174005 20.0519062,12.6171199 C20.3295,12.6168404 20.5790625,12.7312825 20.759625,12.9129337 L17.8447031,14.6247575 C17.6535,14.7368193 17.5905469,14.9813389 17.7041719,15.1706444 C17.8175156,15.3596699 18.0641719,15.4220716 18.2550938,15.3097765 L21.7550625,13.2544397 C21.8971875,13.1851303 22.0427812,13.1458317 22.1966719,13.1455517 C22.4731875,13.1458317 22.7206875,13.2554665 22.9022812,13.435484 C23.0835937,13.6157817 23.1948281,13.8605813 23.1951099,14.1348782 C23.1954375,14.4680764 23.04075,14.7595957 22.8093281,14.9157167 Z" id="Shape" fill="#989AA2"></path>
                <polygon id="Path" points="0 0.588362069 24 0.588362069 24 21.5883621 0 21.5883621"></polygon>
            </g>
        </g>
    </g>
</svg>