<?xml version="1.0" encoding="UTF-8"?>
<svg width="24px" height="24px" viewBox="0 0 24 24" version="1.1" xmlns="http://www.w3.org/2000/svg" xmlns:xlink="http://www.w3.org/1999/xlink">
    <!-- Generator: Sketch 63 (92445) - https://sketch.com -->
    <title>icons/noodles</title>
    <desc>Created with Sketch.</desc>
    <defs>
        <linearGradient x1="85.2488846%" y1="31.1553269%" x2="16.1481633%" y2="72.2805751%" id="linearGradient-1">
            <stop stop-color="#37DBE0" offset="0%"></stop>
            <stop stop-color="#1758F1" offset="100%"></stop>
        </linearGradient>
    </defs>
    <g id="icons/noodles" stroke="none" stroke-width="1" fill="none" fill-rule="evenodd">
        <g id="Icon/Rice" transform="translate(-1.000000, 0.500000)">
            <g id="pasta">
                <path d="M24.1844306,2.19302553 C24.0537567,2.09515319 23.8896851,2.06305106 23.7296971,2.1078766 L12.7720985,5.2590234 C12.6412788,5.0065617 12.4733667,4.81522128 12.3307825,4.65715745 C12.3225667,4.64810426 12.3172192,4.64056809 12.3091979,4.63171064 L24.0051915,1.54814468 C24.233093,1.48746383 24.3920601,1.27948511 24.3920601,1.04194894 L24.3910392,0.520974468 C24.3910392,0.357331915 24.3140836,0.203378723 24.1844306,0.105017021 C24.0537567,0.00665531915 23.8896851,-0.0244680851 23.7296971,0.0198680851 L1.95173669,6.28276809 C1.67930496,6.3618 1.51926834,6.64675532 1.59423082,6.92251064 C1.65703985,7.15446809 1.86564165,7.30685532 2.09456402,7.30685532 C2.13812199,7.30685532 2.18167995,7.30122766 2.22621019,7.29002128 L5.70083275,6.37398511 C5.65255925,6.60134255 5.52611476,6.74663404 5.3405559,6.95206809 C5.20429142,7.10313404 5.04328253,7.28263191 4.91503933,7.51855319 L1.95173669,8.37067872 C1.67930496,8.44971064 1.51926834,8.73466596 1.59423082,9.01042128 C1.65703985,9.24237872 1.86564165,9.39476596 2.09456402,9.39476596 C2.13812199,9.39476596 2.18167995,9.3891383 2.22621019,9.37793191 L4.72014662,8.72042553 C4.79846344,9.31886596 5.10074404,9.68564255 5.3405559,9.95141489 C5.57958994,10.2169915 5.72441044,10.3770617 5.72441044,10.7502 C5.72441044,11.1238277 5.57958994,11.2838979 5.3405559,11.5494745 C5.1344334,11.7779085 4.87138414,12.0700574 4.75189142,12.5277085 L4.16872031,12.5277085 C3.88209336,12.5277085 3.65015693,12.761183 3.65015693,13.0497106 L3.65015693,13.5717128 C3.65015693,17.3206149 5.84798672,20.5544149 9.01021702,22.060817 C8.90467647,22.1562915 8.83564487,22.2912085 8.83564487,22.4455043 C8.83564487,22.7340319 9.0675813,22.9675064 9.35420825,22.9675064 L16.6138525,22.9675064 C16.9004794,22.9675064 17.1324159,22.7340319 17.1324159,22.4455043 C17.1324159,22.2913064 17.063287,22.1563404 16.9578437,22.060817 C20.1201226,20.5545128 22.3179038,17.3206149 22.3179038,13.5717128 L22.3179038,13.0497106 C22.3179038,12.761183 22.0859674,12.5277085 21.7993404,12.5277085 L12.1061381,12.5277085 C12.1671484,12.439183 12.2394371,12.3524191 12.3307825,12.2509255 C12.6062769,11.9455638 12.9840547,11.5270617 12.9840547,10.7502 C12.9840547,9.97382766 12.6062769,9.55532553 12.3307825,9.25001277 C12.0917484,8.98443617 11.9469279,8.82436596 11.9469279,8.45122766 C11.9469279,8.07911702 12.0917484,7.91904681 12.3307825,7.65449787 C12.5532878,7.40790851 12.8323796,7.07700213 12.9353436,6.55455957 L24.0051915,3.63610426 C24.233093,3.5754234 24.3920601,3.36744468 24.3920601,3.12990851 L24.3910392,2.60893404 C24.3910392,2.44534043 24.3140836,2.29138723 24.1844306,2.19302553 Z M11.2220962,4.91832979 C11.3332273,5.08921489 11.4530117,5.23754043 11.5630734,5.35958723 C11.6276811,5.43113191 11.6839273,5.49514043 11.733805,5.55763191 L10.8672155,5.80681489 C10.8165599,5.5118766 10.7161724,5.27595532 10.5900682,5.08495745 L11.2220962,4.91832979 Z M10.2565776,7.65449787 C10.3770426,7.521 10.513939,7.35858085 10.6333831,7.16151489 L11.6036173,6.9056766 C11.5893248,6.92162979 11.578095,6.93538085 11.5630248,6.95206809 C11.2875304,7.25742979 10.9097525,7.67539362 10.9097525,8.45122766 C10.9097525,9.2276 11.2875304,9.64610213 11.5630248,9.95141489 C11.8020588,10.2169915 11.9468793,10.3770617 11.9468793,10.7502 C11.9468793,11.1238277 11.8020588,11.2838979 11.5630248,11.5494745 C11.3569023,11.7779085 11.093853,12.0700574 10.9743603,12.5277085 L10.0318846,12.5277085 C10.0928949,12.439183 10.1651836,12.3524191 10.2565289,12.2509255 C10.5320233,11.9455638 10.9098012,11.5270617 10.9098012,10.7502 C10.9098012,9.97382766 10.5320233,9.55532553 10.2565289,9.25001277 C10.0174949,8.98443617 9.8726744,8.82436596 9.8726744,8.45122766 C9.87272302,8.07911702 10.0175921,7.91904681 10.2565776,7.65449787 Z M9.50048717,5.37221277 C9.71774223,5.61268511 9.84982592,5.77588723 9.86616015,6.09470638 L8.80589323,6.39957872 C8.81556738,6.31790426 8.83564487,6.24699574 8.83564487,6.15577872 C8.83564487,5.92675745 8.79689968,5.74011489 8.74575796,5.5711383 L9.50048717,5.37221277 Z M9.03651709,7.58246383 C8.92144823,7.81314894 8.83564487,8.09056809 8.83564487,8.45122766 C8.83564487,9.2276 9.2134227,9.64610213 9.48891709,9.95141489 C9.72795113,10.2169915 9.87277163,10.3770617 9.87277163,10.7502 C9.87277163,11.1238277 9.72795113,11.2838979 9.48891709,11.5494745 C9.28279458,11.7779085 9.01974533,12.0700574 8.90025261,12.5277085 L7.95777692,12.5277085 C8.01878723,12.439183 8.09107595,12.3524191 8.18242128,12.2509255 C8.45791567,11.9455638 8.83569349,11.5270617 8.83569349,10.7502 C8.83569349,9.97382766 8.45791567,9.55532553 8.18242128,9.25001277 C7.94338723,8.98443617 7.79856673,8.82436596 7.79856673,8.45122766 C7.79856673,8.17982766 7.87717524,8.02127447 8.01164101,7.85264043 L9.03651709,7.58246383 Z M6.75283533,6.09661489 L7.74465403,5.8351 C7.7773225,5.9258766 7.79851812,6.02614681 7.79851812,6.15577872 C7.79851812,6.42458511 7.72073604,6.58269787 7.58836067,6.74971702 L6.5511853,7.04793404 C6.67194197,6.81352979 6.76139136,6.52754681 6.76139136,6.15582766 C6.76143997,6.13434468 6.7534187,6.11770638 6.75283533,6.09661489 Z M6.7953724,8.17336809 C6.78297589,8.26507447 6.76143997,8.34733617 6.76143997,8.45122766 C6.76143997,9.2276 7.13921779,9.64610213 7.41471219,9.95141489 C7.65374623,10.2169915 7.79856673,10.3770617 7.79856673,10.7502 C7.79856673,11.1238277 7.65374623,11.2838979 7.41471219,11.5494745 C7.20858968,11.7779085 6.94554043,12.0700574 6.82604771,12.5277085 L5.88357202,12.5277085 C5.94458233,12.439183 6.01687105,12.3524191 6.10821638,12.2509255 C6.38371077,11.9455638 6.76148859,11.5270617 6.76148859,10.7502 C6.76148859,9.97382766 6.38371077,9.55532553 6.10821638,9.25001277 C5.87025184,8.9855617 5.72606331,8.82514894 5.72479936,8.45558298 L6.7953724,8.17336809 Z M21.280777,13.5717128 C21.280777,18.1768021 17.5587589,21.9235021 12.9840061,21.9235021 C8.40925326,21.9235021 4.68728369,18.1768021 4.68728369,13.5717128 L21.280777,13.5717128 Z" id="Shape" fill="url(#linearGradient-1)"></path>
                <polygon id="Path" points="0 0 26 0 26 23 0 23"></polygon>
            </g>
        </g>
    </g>
</svg>