<?xml version="1.0" encoding="UTF-8"?>
<svg width="24px" height="24px" viewBox="0 0 24 24" version="1.1" xmlns="http://www.w3.org/2000/svg" xmlns:xlink="http://www.w3.org/1999/xlink">
    <!-- Generator: Sketch 63 (92445) - https://sketch.com -->
    <title>icons/rice</title>
    <desc>Created with Sketch.</desc>
    <defs>
        <linearGradient x1="85.248248%" y1="31.1553269%" x2="16.1487747%" y2="72.2805751%" id="linearGradient-1">
            <stop stop-color="#37DBE0" offset="0%"></stop>
            <stop stop-color="#1758F1" offset="100%"></stop>
        </linearGradient>
        <linearGradient x1="85.248248%" y1="31.1553269%" x2="16.1487747%" y2="72.2805751%" id="linearGradient-2">
            <stop stop-color="#37DBE0" offset="0%"></stop>
            <stop stop-color="#1758F1" offset="100%"></stop>
        </linearGradient>
    </defs>
    <g id="icons/rice" stroke="none" stroke-width="1" fill="none" fill-rule="evenodd">
        <g id="Icon/Rice" transform="translate(-1.000000, 0.500000)">
            <g id="rice">
                <g id="Group" transform="translate(1.575758, 0.000000)">
                    <path d="M22.1790956,9.43359375 L21.4414287,9.43359375 C21.3050518,8.76596484 20.96884,8.15269141 20.476348,7.67786719 C20.7297341,6.80175586 20.6228104,5.85287109 20.1645019,5.05371094 C19.7061042,4.25455078 18.943179,3.68691797 18.0627983,3.46976563 C17.8470318,2.58354688 17.2831384,1.8155625 16.4892428,1.354125 C15.6954364,0.892777344 14.7527579,0.785144531 13.8824181,1.04021094 C13.2554682,0.381296875 12.3856192,0 11.4688684,0 C10.537748,0 9.60805563,0.397289062 8.97200201,1.04196289 C8.10005563,0.784695313 7.15478883,0.891744141 6.35919744,1.354125 C5.56530185,1.81551758 5.00140838,2.58354688 4.78564193,3.4697207 C3.90526125,3.68687305 3.14233606,4.25450586 2.68398295,5.05366602 C2.22562985,5.85278125 2.11875071,6.80171094 2.37213684,7.67782227 C1.87964489,8.15269141 1.543433,8.76596484 1.40705611,9.43359375 L0.669389205,9.43359375 C0.29970786,9.43359375 0,9.73528906 0,10.1074219 C0,14.0631973 2.03721911,17.7316074 5.35511364,19.8221816 L5.35511364,20.9785156 C5.35511364,22.0931621 6.25597763,23 7.36328125,23 L15.4852036,23 C16.5925072,23 17.4933712,22.0931621 17.4933712,20.9785156 L17.4933712,19.8221816 C20.8112657,17.7316074 22.8484848,14.0631973 22.8484848,10.1074219 C22.8484848,9.73528906 22.548777,9.43359375 22.1790956,9.43359375 Z M3.54758428,8.44616602 C3.81685724,8.25852734 3.91168738,7.90229688 3.77174041,7.60419531 C3.48854415,7.00107422 3.51531972,6.2995293 3.84340968,5.72753906 C4.17149964,5.15550391 4.76167779,4.78134961 5.42205256,4.72667969 C5.74844673,4.69968164 6.00750036,4.43891016 6.03436518,4.11035156 C6.08867495,3.44555273 6.46031984,2.85150586 7.02858665,2.52119531 C7.59680883,2.19092969 8.29377687,2.16402148 8.89288021,2.44905078 C9.18897337,2.5899707 9.54285713,2.4944668 9.72925971,2.2234082 C10.0895696,1.69961914 10.7886351,1.34765625 11.4688684,1.34765625 C12.1250929,1.34765625 12.742002,1.67504687 13.1191805,2.22345312 C13.3056277,2.49451172 13.6595115,2.59001562 13.9556046,2.4490957 C14.554708,2.16402148 15.2515868,2.19097461 15.8198536,2.52124023 C16.3881204,2.85150586 16.7598099,3.44555273 16.814075,4.11035156 C16.8408952,4.43891016 17.0999489,4.69968164 17.426343,4.72672461 C18.0867624,4.78139453 18.6769406,5.15554883 19.0050752,5.72758398 C19.3331651,6.29957422 19.3598961,7.00111914 19.0766998,7.60424023 C18.9367528,7.90229688 19.031583,8.25857227 19.3008559,8.44621094 C19.6538472,8.69220312 19.9138826,9.03985352 20.0537403,9.43363867 L2.7946553,9.43363867 C2.93455765,9.03980859 3.19454841,8.6921582 3.54758428,8.44616602 Z M16.1545928,20.9785156 C16.1545928,21.3500645 15.8543048,21.6523438 15.4852036,21.6523438 L7.36328125,21.6523438 C6.99418004,21.6523438 6.69389205,21.3500645 6.69389205,20.9785156 L6.69389205,20.2148438 L16.1545928,20.2148438 L16.1545928,20.9785156 Z M16.4713478,18.8671875 L6.37713707,18.8671875 C3.45984967,17.1725098 1.58408724,14.1222695 1.36118063,10.7722656 L21.4873042,10.7722656 C21.2643976,14.1222695 19.3886352,17.1725098 16.4713478,18.8671875 Z" id="Shape" fill="url(#linearGradient-1)"></path>
                    <ellipse id="Oval" fill="url(#linearGradient-2)" cx="14.1464252" cy="6.06445312" rx="1" ry="1"></ellipse>
                    <ellipse id="Oval" fill="url(#linearGradient-2)" cx="16.823982" cy="7.41210938" rx="1" ry="1"></ellipse>
                    <ellipse id="Oval" fill="url(#linearGradient-2)" cx="6.02450284" cy="6.06445312" rx="1" ry="1"></ellipse>
                </g>
                <polygon id="Path" points="0 0 26 0 26 23 0 23"></polygon>
            </g>
        </g>
    </g>
</svg>