<?xml version="1.0" encoding="UTF-8"?>
<svg width="29px" height="29px" viewBox="0 0 29 29" version="1.1" xmlns="http://www.w3.org/2000/svg" xmlns:xlink="http://www.w3.org/1999/xlink">
    <!-- Generator: Sketch 63 (92445) - https://sketch.com -->
    <title>rice</title>
    <desc>Created with Sketch.</desc>
    <defs>
        <linearGradient x1="85.7172814%" y1="31.1553269%" x2="15.6983309%" y2="72.2805751%" id="linearGradient-1">
            <stop stop-color="#37DBE0" offset="0%"></stop>
            <stop stop-color="#1758F1" offset="100%"></stop>
        </linearGradient>
    </defs>
    <g id="_Assets" stroke="none" stroke-width="1" fill="none" fill-rule="evenodd">
        <g id="Icon/Rice" transform="translate(-2.000000, 0.000000)" fill="url(#linearGradient-1)">
            <g id="rice" transform="translate(2.000000, 0.000000)">
                <path d="M28.1503906,11.8945312 L27.2141211,11.8945312 C27.0410273,11.0527383 26.6142969,10.2794805 25.9892109,9.68078906 C26.3108164,8.57612695 26.1751055,7.37970703 25.5934063,6.37207031 C25.0115938,5.36443359 24.0432656,4.64872266 22.9258594,4.37492188 C22.652002,3.25751563 21.936291,2.2891875 20.9286543,1.707375 C19.9211309,1.12567578 18.7246543,0.989964844 17.6199922,1.31157031 C16.824248,0.480765625 15.720209,0 14.5566406,0 C13.374834,0 12.1948398,0.500929687 11.387541,1.3137793 C10.2808398,0.989398438 9.08107812,1.12437305 8.07128906,1.707375 C7.06365234,2.28913086 6.34794141,3.25751562 6.07408398,4.37486523 C4.95667773,4.64866602 3.98834961,5.36437695 3.40659375,6.37201367 C2.82483789,7.37959375 2.68918359,8.57607031 3.01078906,9.68073242 C2.38570313,10.2794805 1.95897266,11.0527383 1.78587891,11.8945312 L0.849609375,11.8945312 C0.380398437,11.8945312 0,12.2749297 0,12.7441406 C0,17.7318574 2.58570117,22.3572441 6.796875,24.9931855 L6.796875,26.4511719 C6.796875,27.8565957 7.9402793,29 9.34570312,29 L19.6542969,29 C21.0597207,29 22.203125,27.8565957 22.203125,26.4511719 L22.203125,24.9931855 C26.4142988,22.3572441 29,17.7318574 29,12.7441406 C29,12.2749297 28.6196016,11.8945312 28.1503906,11.8945312 Z M4.50270312,10.6495137 C4.84447266,10.4129258 4.96483398,9.96376563 4.78720898,9.58789844 C4.42776758,8.82744141 4.46175195,7.94288477 4.87817383,7.22167969 C5.2945957,6.50041797 6.04366797,6.0286582 6.88183594,5.95972656 C7.29610547,5.92568555 7.6249043,5.59688672 7.65900195,5.18261719 C7.72793359,4.34439258 8.19963672,3.59537695 8.92089844,3.17889844 C9.64210352,2.76247656 10.5267168,2.72854883 11.2871172,3.08793359 C11.6629277,3.26561523 12.1120879,3.14519727 12.3486758,2.80342773 C12.8059922,2.14299805 13.6932676,1.69921875 14.5566406,1.69921875 C15.389541,1.69921875 16.172541,2.11201562 16.6512676,2.80348438 C16.8879121,3.14525391 17.3370723,3.26567187 17.7128828,3.08799023 C18.4732832,2.72854883 19.3577832,2.7625332 20.0790449,3.17895508 C20.8003066,3.59537695 21.2720664,4.34439258 21.3409414,5.18261719 C21.3749824,5.59688672 21.7037812,5.92568555 22.1180508,5.9597832 C22.9562754,6.02871484 23.7053477,6.50047461 24.1218262,7.22173633 C24.538248,7.94294141 24.5721758,8.82749805 24.2127344,9.58795508 C24.0351094,9.96376563 24.1554707,10.4129824 24.4972402,10.6495703 C24.9452676,10.9597344 25.2753125,11.3980762 25.4528242,11.8945879 L3.5470625,11.8945879 C3.72463086,11.3980195 4.05461914,10.9596777 4.50270312,10.6495137 Z M20.5039062,26.4511719 C20.5039062,26.9196465 20.1227715,27.3007812 19.6542969,27.3007812 L9.34570312,27.3007812 C8.87722852,27.3007812 8.49609375,26.9196465 8.49609375,26.4511719 L8.49609375,25.4882812 L20.5039062,25.4882812 L20.5039062,26.4511719 Z M20.9059414,23.7890625 L8.09405859,23.7890625 C4.39134766,21.6522949 2.01057227,17.8063398 1.72765234,13.5824219 L27.2723477,13.5824219 C26.9894277,17.8063398 24.6086523,21.6522949 20.9059414,23.7890625 Z" id="Shape"></path>
                <circle id="Oval" cx="17.9550781" cy="7.64648438" r="1"></circle>
                <circle id="Oval" cx="21.3535156" cy="9.34570312" r="1"></circle>
                <circle id="Oval" cx="7.64648438" cy="7.64648438" r="1"></circle>
            </g>
        </g>
    </g>
</svg>