<?xml version="1.0" encoding="UTF-8"?>
<svg width="33px" height="27px" viewBox="0 0 33 27" version="1.1" xmlns="http://www.w3.org/2000/svg" xmlns:xlink="http://www.w3.org/1999/xlink">
    <!-- Generator: Sketch 63 (92445) - https://sketch.com -->
    <title>shop</title>
    <desc>Created with Sketch.</desc>
    <defs>
        <linearGradient x1="85.7172814%" y1="37.3849709%" x2="15.6983309%" y2="64.9150957%" id="linearGradient-1">
            <stop stop-color="#37DBE0" offset="0%"></stop>
            <stop stop-color="#1758F1" offset="100%"></stop>
        </linearGradient>
        <linearGradient x1="85.7172814%" y1="37.5711119%" x2="15.6983309%" y2="64.6950161%" id="linearGradient-2">
            <stop stop-color="#37DBE0" offset="0%"></stop>
            <stop stop-color="#1758F1" offset="100%"></stop>
        </linearGradient>
        <linearGradient x1="85.7172814%" y1="40.1518421%" x2="15.6983309%" y2="61.6437478%" id="linearGradient-3">
            <stop stop-color="#37DBE0" offset="0%"></stop>
            <stop stop-color="#1758F1" offset="100%"></stop>
        </linearGradient>
    </defs>
    <g id="_Assets" stroke="none" stroke-width="1" fill="none" fill-rule="evenodd">
        <g id="Icon/Store" transform="translate(0.000000, -2.000000)">
            <g id="shop" transform="translate(0.000000, 2.000000)">
                <path d="M31.4832891,25.8394512 L30.933375,25.8394512 L30.933375,11.4984375 C32.1751289,10.6994121 33,9.30612891 33,7.72290234 C33,7.63879102 32.9780215,7.55609766 32.9363203,7.48307227 L29.1005215,0.770408203 C28.8311074,0.2990625 28.3265039,0.0061875 27.7836152,0.0061875 L5.21638477,0.0061875 C4.67349609,0.0061875 4.16889258,0.298998047 3.89947852,0.770408203 L0.0636796875,7.48307227 C0.0219785156,7.55609766 0,7.63885547 0,7.72290234 C0,9.30612891 0.824871094,10.6994121 2.066625,11.4984375 L2.066625,25.8394512 L1.51671094,25.8394512 C1.24974609,25.8394512 1.0333125,26.0558848 1.0333125,26.3228496 C1.0333125,26.5898145 1.24974609,26.806248 1.51671094,26.806248 L31.4832891,26.806248 C31.7503184,26.806248 31.9666875,26.5898145 31.9666875,26.3228496 C31.9666875,26.0558848 31.7502539,25.8394512 31.4832891,25.8394512 Z M1.00011914,8.20630078 L2.54983008,8.20630078 C2.81679492,8.20630078 3.03322852,7.98986719 3.03322852,7.72290234 C3.03322852,7.4559375 2.81679492,7.23950391 2.54983008,7.23950391 L1.31639062,7.23950391 L4.73891602,1.25006836 C4.83662695,1.07913867 5.01954492,0.972984375 5.21638477,0.972984375 L27.7836152,0.972984375 C27.9804551,0.972984375 28.1634375,1.07913867 28.261084,1.25006836 L31.6835449,7.23950391 L30.4498477,7.23950391 C30.1828184,7.23950391 29.9664492,7.4559375 29.9664492,7.72290234 C29.9664492,7.98986719 30.1828184,8.20630078 30.4498477,8.20630078 L31.9998164,8.20630078 C31.7634668,9.91972266 30.2897461,11.2436543 28.5123867,11.2436543 C26.7350918,11.2436543 25.2620801,9.91959375 25.025666,8.20630078 L28.383416,8.20630078 C28.6504453,8.20630078 28.8668145,7.98986719 28.8668145,7.72290234 C28.8668145,7.4559375 28.6504453,7.23950391 28.383416,7.23950391 L4.6168418,7.23950391 C4.34987695,7.23950391 4.13344336,7.4559375 4.13344336,7.72290234 C4.13344336,7.98986719 4.34987695,8.20630078 4.6168418,8.20630078 L7.97426953,8.20630078 C7.73785547,9.91959375 6.2647793,11.2436543 4.48754883,11.2436543 C2.71018945,11.2436543 1.23646875,9.91972266 1.00011914,8.20630078 Z M23.9908711,8.20630078 C23.754457,9.91959375 22.2813809,11.2436543 20.5041504,11.2436543 C18.7268555,11.2436543 17.2538438,9.91959375 17.0174297,8.20630078 L23.9908711,8.20630078 Z M15.9825703,8.20630078 C15.7461563,9.91959375 14.2730801,11.2436543 12.4958496,11.2436543 C10.7186191,11.2436543 9.24554297,9.91959375 9.00912891,8.20630078 L15.9825703,8.20630078 Z M27.383168,25.8395156 L22.1500254,25.8395156 L22.1500254,24.2229668 L27.383168,24.2229668 L27.383168,25.8395156 Z M27.383168,23.2561699 L22.1500254,23.2561699 L22.1500254,14.4063047 L27.383168,14.4063047 L27.383168,23.2561699 Z M29.9665781,25.8395156 L28.3500293,25.8395156 L28.3500293,13.9229063 C28.3500293,13.6559414 28.1336602,13.4395078 27.8666309,13.4395078 L21.6666914,13.4395078 C21.3996621,13.4395078 21.183293,13.6559414 21.183293,13.9229063 L21.183293,25.8395156 L3.03342188,25.8395156 L3.03342188,11.9672695 C3.48981445,12.124084 3.97862695,12.2104512 4.48754883,12.2104512 C6.23390625,12.2104512 7.75042383,11.2078184 8.49169922,9.74789063 C9.23297461,11.2077539 10.7494922,12.2104512 12.4958496,12.2104512 C14.242207,12.2104512 15.7587246,11.2078184 16.5,9.74789063 C17.2412754,11.2077539 18.757793,12.2104512 20.5041504,12.2104512 C22.2505078,12.2104512 23.7670254,11.2078184 24.5083008,9.74789063 C25.2495762,11.2077539 26.7660937,12.2104512 28.5124512,12.2104512 C29.021373,12.2104512 29.5101855,12.124084 29.9665781,11.967334 L29.9665781,25.8395156 Z" id="Shape" fill="url(#linearGradient-2)"></path>
                <path d="M19.0833457,13.4395078 L5.13336914,13.4395078 C4.8664043,13.4395078 4.6499707,13.6559414 4.6499707,13.9229062 L4.6499707,23.7395684 C4.6499707,24.0065332 4.8664043,24.2229668 5.13336914,24.2229668 L19.0833457,24.2229668 C19.350375,24.2229668 19.5667441,24.0065332 19.5667441,23.7395684 L19.5667441,13.9229062 C19.5667441,13.655877 19.350375,13.4395078 19.0833457,13.4395078 Z M18.5999473,23.2561699 L5.61676758,23.2561699 L5.61676758,14.4063047 L18.5999473,14.4063047 L18.5999473,23.2561699 Z" id="Shape" fill="url(#linearGradient-3)"></path>
            </g>
        </g>
    </g>
</svg>