<?xml version="1.0" encoding="UTF-8"?>
<svg width="24px" height="24px" viewBox="0 0 24 24" version="1.1" xmlns="http://www.w3.org/2000/svg" xmlns:xlink="http://www.w3.org/1999/xlink">
    <!-- Generator: Sketch 63 (92445) - https://sketch.com -->
    <title>icons/store</title>
    <desc>Created with Sketch.</desc>
    <defs>
        <linearGradient x1="85.7172814%" y1="35.5720472%" x2="15.6983309%" y2="67.0585653%" id="linearGradient-1">
            <stop stop-color="#37DBE0" offset="0%"></stop>
            <stop stop-color="#1758F1" offset="100%"></stop>
        </linearGradient>
        <linearGradient x1="85.7172814%" y1="37.6780265%" x2="15.6983309%" y2="64.568608%" id="linearGradient-2">
            <stop stop-color="#37DBE0" offset="0%"></stop>
            <stop stop-color="#1758F1" offset="100%"></stop>
        </linearGradient>
        <linearGradient x1="85.7172814%" y1="40.2365571%" x2="15.6983309%" y2="61.543587%" id="linearGradient-3">
            <stop stop-color="#37DBE0" offset="0%"></stop>
            <stop stop-color="#1758F1" offset="100%"></stop>
        </linearGradient>
    </defs>
    <g id="icons/store" stroke="none" stroke-width="1" fill="none" fill-rule="evenodd">
        <g id="Icon/Store" transform="translate(0.000000, 2.000000)">
            <g id="shop">
                <path d="M22.8969375,20.1596026 L22.497,20.1596026 L22.497,9.7747306 C23.4000937,9.19612601 24,8.18719679 24,7.04072239 C24,6.97981418 23.9840156,6.91993279 23.9536875,6.86705233 L21.1640156,2.00615766 C20.9680781,1.66483836 20.6010938,1.45275647 20.2062656,1.45275647 L3.79373438,1.45275647 C3.39890625,1.45275647 3.03192188,1.66479169 2.83598438,2.00615766 L0.0463125,6.86705233 C0.015984375,6.91993279 0,6.97986086 0,7.04072239 C0,8.18719679 0.59990625,9.19612601 1.503,9.7747306 L1.503,20.1596026 L1.1030625,20.1596026 C0.90890625,20.1596026 0.7515,20.3163303 0.7515,20.5096497 C0.7515,20.7029691 0.90890625,20.8596969 1.1030625,20.8596969 L22.8969375,20.8596969 C23.0911406,20.8596969 23.2485,20.7029691 23.2485,20.5096497 C23.2485,20.3163303 23.0910937,20.1596026 22.8969375,20.1596026 Z M0.727359375,7.39076953 L1.85442188,7.39076953 C2.04857813,7.39076953 2.20598438,7.23404176 2.20598438,7.04072239 C2.20598438,6.84740302 2.04857813,6.69067524 1.85442188,6.69067524 L0.957375,6.69067524 L3.44648438,2.35349778 C3.51754688,2.22972111 3.65057813,2.15285075 3.79373438,2.15285075 L20.2062656,2.15285075 C20.3494219,2.15285075 20.4825,2.22972111 20.5535156,2.35349778 L23.0425781,6.69067524 L22.1453438,6.69067524 C21.9511406,6.69067524 21.7937813,6.84740302 21.7937813,7.04072239 C21.7937813,7.23404176 21.9511406,7.39076953 22.1453438,7.39076953 L23.2725937,7.39076953 C23.1007031,8.6315233 22.0289062,9.59023242 20.7362812,9.59023242 C19.4437031,9.59023242 18.3724219,8.63142996 18.2004844,7.39076953 L20.6424844,7.39076953 C20.8366875,7.39076953 20.9940469,7.23404176 20.9940469,7.04072239 C20.9940469,6.84740302 20.8366875,6.69067524 20.6424844,6.69067524 L3.35770313,6.69067524 C3.16354688,6.69067524 3.00614063,6.84740302 3.00614063,7.04072239 C3.00614063,7.23404176 3.16354688,7.39076953 3.35770313,7.39076953 L5.79946875,7.39076953 C5.62753125,8.63142996 4.55620313,9.59023242 3.26367188,9.59023242 C1.97104688,9.59023242 0.89925,8.6315233 0.727359375,7.39076953 Z M17.4479062,7.39076953 C17.2759687,8.63142996 16.2046406,9.59023242 14.9121094,9.59023242 C13.6195313,9.59023242 12.54825,8.63142996 12.3763125,7.39076953 L17.4479062,7.39076953 Z M11.6236875,7.39076953 C11.45175,8.63142996 10.3804219,9.59023242 9.08789062,9.59023242 C7.79535937,9.59023242 6.72403125,8.63142996 6.55209375,7.39076953 L11.6236875,7.39076953 Z M19.9150313,20.1596492 L16.1091094,20.1596492 L16.1091094,18.9890449 L19.9150313,18.9890449 L19.9150313,20.1596492 Z M19.9150313,18.2889506 L16.1091094,18.2889506 L16.1091094,11.8804275 L19.9150313,11.8804275 L19.9150313,18.2889506 Z M21.793875,20.1596492 L20.6182031,20.1596492 L20.6182031,11.5303804 C20.6182031,11.337061 20.4608437,11.1803332 20.2666406,11.1803332 L15.7575937,11.1803332 C15.5633906,11.1803332 15.4060312,11.337061 15.4060312,11.5303804 L15.4060312,20.1596492 L2.206125,20.1596492 L2.206125,10.1142297 C2.53804688,10.227785 2.89354688,10.2903267 3.26367188,10.2903267 C4.53375,10.2903267 5.63667188,9.56428226 6.17578125,8.50709321 C6.71489063,9.56423559 7.8178125,10.2903267 9.08789063,10.2903267 C10.3579688,10.2903267 11.4608906,9.56428226 12,8.50709321 C12.5391094,9.56423559 13.6420313,10.2903267 14.9121094,10.2903267 C16.1821875,10.2903267 17.2851094,9.56428226 17.8242188,8.50709321 C18.3633281,9.56423559 19.46625,10.2903267 20.7363281,10.2903267 C21.1064531,10.2903267 21.4619531,10.227785 21.793875,10.1142763 L21.793875,20.1596492 Z" id="Shape" fill="url(#linearGradient-2)"></path>
                <path d="M13.8787969,11.1803332 L3.73335937,11.1803332 C3.53920312,11.1803332 3.38179687,11.337061 3.38179687,11.5303804 L3.38179687,18.6389978 C3.38179687,18.8323171 3.53920312,18.9890449 3.73335937,18.9890449 L13.8787969,18.9890449 C14.073,18.9890449 14.2303594,18.8323171 14.2303594,18.6389978 L14.2303594,11.5303804 C14.2303594,11.3370143 14.073,11.1803332 13.8787969,11.1803332 Z M13.5272344,18.2889506 L4.08492187,18.2889506 L4.08492187,11.8804275 L13.5272344,11.8804275 L13.5272344,18.2889506 Z" id="Shape" fill="url(#linearGradient-3)"></path>
                <polygon id="Path" points="0 0 24 0 24 21 0 21"></polygon>
            </g>
        </g>
    </g>
</svg>