<?xml version="1.0" encoding="UTF-8"?>
<svg width="29px" height="29px" viewBox="0 0 29 29" version="1.1" xmlns="http://www.w3.org/2000/svg" xmlns:xlink="http://www.w3.org/1999/xlink">
    <!-- Generator: Sketch 63 (92445) - https://sketch.com -->
    <title>pasta</title>
    <desc>Created with Sketch.</desc>
    <defs>
        <linearGradient x1="85.7172814%" y1="31.1553269%" x2="15.6983309%" y2="72.2805751%" id="linearGradient-1">
            <stop stop-color="#37DBE0" offset="0%"></stop>
            <stop stop-color="#1758F1" offset="100%"></stop>
        </linearGradient>
    </defs>
    <g id="_Assets" stroke="none" stroke-width="1" fill="none" fill-rule="evenodd">
        <g id="Icon/Rice" transform="translate(-2.000000, 0.000000)" fill="url(#linearGradient-1)">
            <g id="pasta" transform="translate(2.000000, 0.000000)">
                <path d="M28.6956234,2.76511915 C28.5297681,2.64171489 28.3215234,2.6012383 28.1184617,2.65775745 L14.2107404,6.63094255 C14.0447,6.31262128 13.8315809,6.07136596 13.6506085,5.87206809 C13.6401809,5.86065319 13.6333936,5.85115106 13.6232128,5.83998298 L28.4681277,1.95200851 C28.7573872,1.87549787 28.9591532,1.61326383 28.9591532,1.3137617 L28.9578574,0.656880851 C28.9578574,0.450548936 28.860183,0.256434043 28.6956234,0.132412766 C28.5297681,0.00839148936 28.3215234,-0.0308510638 28.1184617,0.0250510638 L0.477204255,7.92175106 C0.131425532,8.0214 -0.0716978723,8.38069149 0.0234468085,8.72838298 C0.103165957,9.02085106 0.367929787,9.21299149 0.658485106,9.21299149 C0.713770213,9.21299149 0.769055319,9.20589574 0.825574468,9.19176596 L5.23567234,8.03676383 C5.17440213,8.32343191 5.01391489,8.50662553 4.77839787,8.76565106 C4.60544681,8.95612553 4.40108936,9.18244894 4.23831915,9.47991489 L0.477204255,10.554334 C0.131425532,10.653983 -0.0716978723,11.0132745 0.0234468085,11.360966 C0.103165957,11.653434 0.367929787,11.8455745 0.658485106,11.8455745 C0.713770213,11.8455745 0.769055319,11.8384787 0.825574468,11.8243489 L3.99095532,10.9953191 C4.09035745,11.7498745 4.47402128,12.2123319 4.77839787,12.5474362 C5.08178723,12.8822936 5.26559787,13.0841213 5.26559787,13.5546 C5.26559787,14.0256957 5.08178723,14.2275234 4.77839787,14.5623809 C4.51678085,14.8504064 4.18291064,15.2187681 4.03124681,15.7958064 L3.29106809,15.7958064 C2.92727234,15.7958064 2.63289149,16.0901872 2.63289149,16.453983 L2.63289149,17.1121596 C2.63289149,21.8390362 5.42244468,25.9164362 9.43604468,27.8158128 C9.30208936,27.9361936 9.21447234,28.1063064 9.21447234,28.3008532 C9.21447234,28.6646489 9.50885319,28.9590298 9.87264894,28.9590298 L19.0868128,28.9590298 C19.4506085,28.9590298 19.7449894,28.6646489 19.7449894,28.3008532 C19.7449894,28.1064298 19.6572489,27.9362553 19.523417,27.8158128 C23.5370787,25.9165596 26.3265702,21.8390362 26.3265702,17.1121596 L26.3265702,16.453983 C26.3265702,16.0901872 26.0321894,15.7958064 25.6683936,15.7958064 L13.365483,15.7958064 C13.4429191,15.6841872 13.5346702,15.5747894 13.6506085,15.4468191 C14.0002745,15.0617979 14.4797617,14.5341213 14.4797617,13.5546 C14.4797617,12.5756957 14.0002745,12.0480191 13.6506085,11.6630596 C13.3472191,11.3282021 13.1634085,11.1263745 13.1634085,10.6558957 C13.1634085,10.1867128 13.3472191,9.98488511 13.6506085,9.6513234 C13.9330191,9.34040638 14.2872511,8.9231766 14.4179362,8.26444468 L28.4681277,4.58465319 C28.7573872,4.50814255 28.9591532,4.24590851 28.9591532,3.94640638 L28.9578574,3.28952553 C28.9578574,3.08325532 28.860183,2.88914043 28.6956234,2.76511915 Z M12.2434298,6.20137234 C12.3844809,6.41683617 12.5365149,6.60385532 12.6762085,6.75774043 C12.7582106,6.84794894 12.8296,6.92865532 12.8929064,7.00744894 L11.7930043,7.32163617 C11.7287106,6.94975745 11.6012957,6.65229149 11.4412404,6.41146809 L12.2434298,6.20137234 Z M11.0179638,9.6513234 C11.1708617,9.483 11.3446149,9.27821064 11.496217,9.02973617 L12.7276681,8.70715745 C12.7095277,8.72727234 12.6952745,8.74461064 12.6761468,8.76565106 C12.3264809,9.15067234 11.8469936,9.67767021 11.8469936,10.6558957 C11.8469936,11.6348 12.3264809,12.1624766 12.6761468,12.5474362 C12.9795362,12.8822936 13.1633468,13.0841213 13.1633468,13.5546 C13.1633468,14.0256957 12.9795362,14.2275234 12.6761468,14.5623809 C12.4145298,14.8504064 12.0806596,15.2187681 11.9289957,15.7958064 L10.7327766,15.7958064 C10.8102128,15.6841872 10.9019638,15.5747894 11.0179021,15.4468191 C11.3675681,15.0617979 11.8470553,14.5341213 11.8470553,13.5546 C11.8470553,12.5756957 11.3675681,12.0480191 11.0179021,11.6630596 C10.7145128,11.3282021 10.5307021,11.1263745 10.5307021,10.6558957 C10.5307638,10.1867128 10.7146362,9.98488511 11.0179638,9.6513234 Z M10.0583106,6.77365957 C10.3340574,7.07686383 10.5017021,7.28264043 10.522434,7.68462979 L9.17671064,8.06903404 C9.18898936,7.96605319 9.21447234,7.87664681 9.21447234,7.76163404 C9.21447234,7.47286809 9.16529574,7.23753617 9.10038511,7.02447872 L10.0583106,6.77365957 Z M9.46942553,9.56049787 C9.3233766,9.8513617 9.21447234,10.2011511 9.21447234,10.6558957 C9.21447234,11.6348 9.69395957,12.1624766 10.0436255,12.5474362 C10.3470149,12.8822936 10.5308255,13.0841213 10.5308255,13.5546 C10.5308255,14.0256957 10.3470149,14.2275234 10.0436255,14.5623809 C9.78200851,14.8504064 9.4481383,15.2187681 9.29647447,15.7958064 L8.10025532,15.7958064 C8.17769149,15.6841872 8.26944255,15.5747894 8.38538085,15.4468191 C8.73504681,15.0617979 9.21453404,14.5341213 9.21453404,13.5546 C9.21453404,12.5756957 8.73504681,12.0480191 8.38538085,11.6630596 C8.08199149,11.3282021 7.89818085,11.1263745 7.89818085,10.6558957 C7.89818085,10.3136957 7.99795319,10.1137809 8.16862128,9.90115532 L9.46942553,9.56049787 Z M6.57090638,7.68703617 L7.82975319,7.3573 C7.87121702,7.47175745 7.89811915,7.59818511 7.89811915,7.76163404 C7.89811915,8.10056383 7.79939574,8.2999234 7.63138085,8.51051277 L6.31496596,8.88652553 C6.46823404,8.59097234 6.58176596,8.23038511 6.58176596,7.76169574 C6.58182766,7.73460851 6.57164681,7.71362979 6.57090638,7.68703617 Z M6.62489574,10.3055511 C6.6091617,10.4211809 6.58182766,10.5249021 6.58182766,10.6558957 C6.58182766,11.6348 7.06131489,12.1624766 7.41098085,12.5474362 C7.71437021,12.8822936 7.89818085,13.0841213 7.89818085,13.5546 C7.89818085,14.0256957 7.71437021,14.2275234 7.41098085,14.5623809 C7.14936383,14.8504064 6.81549362,15.2187681 6.66382979,15.7958064 L5.46761064,15.7958064 C5.54504681,15.6841872 5.63679787,15.5747894 5.75273617,15.4468191 C6.10240213,15.0617979 6.58188936,14.5341213 6.58188936,13.5546 C6.58188936,12.5756957 6.10240213,12.0480191 5.75273617,11.6630596 C5.45070426,11.3296213 5.26769574,11.1273617 5.26609149,10.6613872 L6.62489574,10.3055511 Z M25.010217,17.1121596 C25.010217,22.9185766 20.286117,27.6426766 14.4797,27.6426766 C8.67328298,27.6426766 3.94924468,22.9185766 3.94924468,17.1121596 L25.010217,17.1121596 Z" id="Shape"></path>
            </g>
        </g>
    </g>
</svg>