<?xml version="1.0" encoding="UTF-8"?>
<svg width="287px" height="273px" viewBox="0 0 287 273" version="1.1" xmlns="http://www.w3.org/2000/svg" xmlns:xlink="http://www.w3.org/1999/xlink">
    <!-- Generator: Sketch 63 (92445) - https://sketch.com -->
    <title>Group 2</title>
    <desc>Created with Sketch.</desc>
    <defs>
        <linearGradient x1="85.7172814%" y1="43.872794%" x2="15.6983309%" y2="57.2443641%" id="linearGradient-1">
            <stop stop-color="#37DBE0" offset="0%"></stop>
            <stop stop-color="#1758F1" offset="100%"></stop>
        </linearGradient>
        <linearGradient x1="85.7172814%" y1="43.8227801%" x2="15.6983309%" y2="57.3034969%" id="linearGradient-2">
            <stop stop-color="#37DBE0" offset="0%"></stop>
            <stop stop-color="#1758F1" offset="100%"></stop>
        </linearGradient>
        <linearGradient x1="52.2182216%" y1="31.1553269%" x2="47.869695%" y2="72.2805751%" id="linearGradient-3">
            <stop stop-color="#37DBE0" offset="0%"></stop>
            <stop stop-color="#1758F1" offset="100%"></stop>
        </linearGradient>
    </defs>
    <g id="_implementation" stroke="none" stroke-width="1" fill="none" fill-rule="evenodd">
        <g id="Thanks-Copy-2" transform="translate(-5.000000, -287.000000)">
            <g id="Group-2" transform="translate(5.000000, 290.000000)">
                <g id="toilet" transform="translate(155.000000, 0.000000)">
                    <g id="Path">
                        <path d="M8.61721182,65.8903509 L120.382789,65.8903509 C125.141943,65.8903509 129,69.6810348 129,74.3570803 L129,78.6315789 L0,78.6315789 L0,74.3605081 C0,72.114398 0.906548728,69.9599715 2.52268962,68.3714103 C4.13883051,66.7828491 6.33118075,65.8903509 8.61721182,65.8903509 Z" fill="#9D9D9D" fill-rule="nonzero"></path>
                        <path d="M0,78.6315789 L0,83.8022712 C0,106.517991 15.0016227,124.017997 35.703862,130.556688 L35.703862,166 L93.296138,166 L93.296138,130.556688 C113.998377,124.024923 129,106.524918 129,83.8022712 L129,78.6419688 L0,78.6315789 Z" fill="#FFFFFF" fill-rule="nonzero"></path>
                        <path d="M0,78.6315789 L0,83.7274817 C0,85.551997 0.101905418,87.3751495 0.307012474,89.1885965 L128.692988,89.1885965 C128.898095,87.3751495 129,85.551997 129,83.7274817 L129,78.6418185 L0,78.6315789 Z" fill="#D7D7D7" fill-rule="nonzero"></path>
                        <path d="M105.163209,0 L23.1042195,0 C20.6076604,0.000285876134 18.2283744,1.06659746 16.5574571,2.93402667 C14.8865397,4.80145588 14.0808088,7.29474214 14.3404351,9.79446827 L14.6470805,12.7412281 L113.620348,12.7412281 L113.926993,9.79446827 C114.185493,7.29498805 113.37937,4.80234558 111.708693,2.93518553 C110.038017,1.06802548 107.659407,0.00138799041 105.163209,0 Z" fill="#FFFFFF" fill-rule="nonzero"></path>
                        <path d="M105.163209,0 L23.1042195,0 C20.6076604,0.000285876134 18.2283744,1.06659746 16.5574571,2.93402667 C14.8865397,4.80145588 14.0808088,7.29474214 14.3404351,9.79446827 L14.6470805,12.7412281 L113.620348,12.7412281 L113.926993,9.79446827 C114.185493,7.29498805 113.37937,4.80234558 111.708693,2.93518553 C110.038017,1.06802548 107.659407,0.00138799041 105.163209,0 Z" fill="#9D9D9D" fill-rule="nonzero"></path>
                        <path d="M120.32793,65.8903509 L105.911932,65.8903509 C108.212516,65.8903509 110.418823,66.7828491 112.045252,68.3714103 C113.671682,69.9599715 114.584932,72.114398 114.584001,74.3605081 L114.584001,78.6315789 L129,78.6315789 L129,74.3605081 C129.000931,72.114398 128.08768,69.9599715 126.461251,68.3714103 C124.834821,66.7828491 122.628514,65.8903509 120.32793,65.8903509 L120.32793,65.8903509 Z" fill="#838383" fill-rule="nonzero"></path>
                        <path d="M105.174553,0 L90.8863636,0 C93.3795021,0.000285718799 95.7555283,1.06601045 97.4241563,2.93241191 C99.0927843,4.79881336 99.8974113,7.29072742 99.6381407,9.78907781 L99.3319155,12.7412281 L113.620105,12.7412281 L113.92633,9.79609005 C114.186587,7.29684466 113.382523,4.80365621 111.713895,2.93591772 C110.045267,1.06817923 107.668678,0.00118035603 105.174553,0 Z" fill="#838383" fill-rule="nonzero"></path>
                        <polygon fill="#FFFFFF" fill-rule="nonzero" points="14.6590909 12.7412281 20.2324973 65.5263158 108.031065 65.5263158 113.607955 12.7412281"></polygon>
                        <polygon fill="#D7D7D7" fill-rule="nonzero" points="112.580358 22.5701754 113.607955 12.7412281 14.6590909 12.7412281 15.6832043 22.5701754"></polygon>
                        <path d="M8.61721182,65.8903509 L120.382789,65.8903509 C125.141943,65.8903509 129,69.6810348 129,74.3570803 L129,78.6315789 L0,78.6315789 L0,74.3605081 C0,72.114398 0.906548728,69.9599715 2.52268962,68.3714103 C4.13883051,66.7828491 6.33118075,65.8903509 8.61721182,65.8903509 Z" stroke="#000000" stroke-width="5" stroke-linecap="round" stroke-linejoin="round"></path>
                        <path d="M0,78.6315789 L0,83.8022712 C0,106.517991 15.0016227,124.017997 35.703862,130.556688 L35.703862,166 L93.296138,166 L93.296138,130.556688 C113.998377,124.024923 129,106.524918 129,83.8022712 L129,78.6419688 L0,78.6315789 Z" stroke="#000000" stroke-width="5" stroke-linecap="round" stroke-linejoin="round"></path>
                        <path d="M108.042115,65.8903509 L20.2392502,65.8903509 L14.3404308,10.0316294 C14.0806408,7.56248458 14.8876558,5.09979565 16.5607173,3.25619762 C18.2337788,1.41259959 20.6156312,0.3613774 23.1137488,0.364035088 L105.164133,0.364035088 C107.66007,0.365410144 110.038429,1.41823025 111.708931,3.26120283 C113.379432,5.10417541 114.185471,7.56452783 113.926998,10.0316294 L108.042115,65.8903509 Z" stroke="#000000" stroke-width="5" stroke-linecap="round" stroke-linejoin="round"></path>
                        <path d="M105.163209,0 L23.1042195,0 C20.6076604,0.000285876134 18.2283744,1.06659746 16.5574571,2.93402667 C14.8865397,4.80145588 14.0808088,7.29474214 14.3404351,9.79446827 L14.6470805,12.7412281 L113.620348,12.7412281 L113.926993,9.79446827 C114.185493,7.29498805 113.37937,4.80234558 111.708693,2.93518553 C110.038017,1.06802548 107.659407,0.00138799041 105.163209,0 Z" stroke="#000000" stroke-width="5" stroke-linecap="round" stroke-linejoin="round"></path>
                    </g>
                </g>
                <g id="Icon/ToiletPaper" transform="translate(117.500000, 203.000000) scale(-1, 1) rotate(-180.000000) translate(-117.500000, -203.000000) translate(0.000000, 136.000000)">
                    <g id="toilet-paper-2" transform="translate(-0.000000, 0.000000)">
                        <g id="Group" transform="translate(0.044787, -0.000000)">
                            <path d="M92.3874313,0.00292714346 C77.7985351,0.0239416117 24.5353894,0.150989045 2.90647152,0.176028137 C0.520384182,0.178790433 -1.49692477,0.920851121 1.63691417,2.40193086 C12.6351678,7.59980191 73.131067,35.9188636 183.124612,87.359116 C175.333538,87.359116 169.22956,97.5640487 169.22956,110.591366 C169.22956,123.618684 175.096722,134 183.225653,134 L215.546493,133.822079 L222.494019,133.823757 C229.095513,133.823757 234.073182,123.83664 234.073182,110.591506 C234.073182,100.234858 231.029748,91.8700783 226.546375,88.7142581 C225.751226,88.1545574 113.427646,12.068839 97.2790037,1.26925317 C96.0450404,0.444026362 93.7136429,0.00103265437 92.3874313,0.00292714346 Z" id="Path" fill="url(#linearGradient-2)"></path>
                            <path d="M215.741376,86.6187845 L189.237737,86.6187845 L18.1911398,5.67300499 C17.9989784,5.1791148 18.2193388,4.9289246 18.852221,4.92243437 C42.6161722,4.67873439 66.7926452,4.67873439 91.3816399,4.92243437 C92.9095236,4.92243437 94.0507302,5.22935072 94.8052596,5.84318343 C135.536886,32.6012428 175.848925,59.5264432 215.741376,86.6187845 Z" id="Path-Copy" fill="#FFFFFF"></path>
                            <path d="M222.493879,129.177335 C219.660128,129.177335 215.546353,121.937668 215.546353,110.591506 C215.546353,99.2453447 219.660128,92.0056779 222.493879,92.0056779 C225.327631,92.0056779 229.441405,99.2453447 229.441405,110.591506 C229.441405,121.937668 225.327631,129.177335 222.493879,129.177335 Z" id="Path" fill="#FFFFFF"></path>
                            <path d="M210.914716,110.591366 C210.914809,115.79836 212.426171,122.030468 215.448801,129.28769 L183.225653,129.28769 C178.784748,129.28769 173.861197,121.545095 173.861197,110.591366 C173.861197,99.6376377 178.743962,92.0055381 183.124612,92.0055381 L215.448801,92.0055381 C212.674696,96.1704715 210.914576,102.780876 210.914716,110.591366 Z" id="Path" fill="#FFFFFF"></path>
                            <path d="M224.131502,104.020387 C225.03595,107.649448 225.03595,113.533425 224.131502,117.162625 C223.227054,120.791685 221.760845,120.791685 220.856397,117.162625 C219.951949,113.533565 219.951949,107.649588 220.856397,104.020387 C221.760705,100.391187 223.227054,100.391187 224.131502,104.020387" id="Path" fill="url(#linearGradient-3)"></path>
                        </g>
                    </g>
                    <g id="toilet-paper-2-copy" transform="translate(-0.000000, 0.000000)">
                        <g id="Group" transform="translate(0.044787, -0.000000)">
                            <path d="M92.3874313,0.00292714346 C77.7985351,0.0239416117 24.5353894,0.150989045 2.90647152,0.176028137 C0.520384182,0.178790433 -1.49692477,0.920851121 1.63691417,2.40193086 C12.6351678,7.59980191 73.131067,35.9188636 183.124612,87.359116 C175.333538,87.359116 169.22956,97.5640487 169.22956,110.591366 C169.22956,123.618684 175.096722,134 183.225653,134 L215.546493,133.822079 L222.494019,133.823757 C229.095513,133.823757 234.073182,123.83664 234.073182,110.591506 C234.073182,100.234858 231.029748,91.8700783 226.546375,88.7142581 C225.751226,88.1545574 113.427646,12.068839 97.2790037,1.26925317 C96.0450404,0.444026362 93.7136429,0.00103265437 92.3874313,0.00292714346 Z" id="Path" fill="url(#linearGradient-2)"></path>
                            <path d="M215.741376,86.6187845 L189.237737,86.6187845 L18.1911398,5.67300499 C17.9989784,5.1791148 18.2193388,4.9289246 18.852221,4.92243437 C42.6161722,4.67873439 66.7926452,4.67873439 91.3816399,4.92243437 C92.9095236,4.92243437 94.0507302,5.22935072 94.8052596,5.84318343 C135.536886,32.6012428 175.848925,59.5264432 215.741376,86.6187845 Z" id="Path-Copy" fill="#FFFFFF"></path>
                            <path d="M222.493879,129.177335 C219.660128,129.177335 215.546353,121.937668 215.546353,110.591506 C215.546353,99.2453447 219.660128,92.0056779 222.493879,92.0056779 C225.327631,92.0056779 229.441405,99.2453447 229.441405,110.591506 C229.441405,121.937668 225.327631,129.177335 222.493879,129.177335 Z" id="Path" fill="#FFFFFF"></path>
                            <path d="M210.914716,110.591366 C210.914809,115.79836 212.426171,122.030468 215.448801,129.28769 L183.225653,129.28769 C178.784748,129.28769 173.861197,121.545095 173.861197,110.591366 C173.861197,99.6376377 178.743962,92.0055381 183.124612,92.0055381 L215.448801,92.0055381 C212.674696,96.1704715 210.914576,102.780876 210.914716,110.591366 Z" id="Path" fill="#FFFFFF"></path>
                            <path d="M224.131502,104.020387 C225.03595,107.649448 225.03595,113.533425 224.131502,117.162625 C223.227054,120.791685 221.760845,120.791685 220.856397,117.162625 C219.951949,113.533565 219.951949,107.649588 220.856397,104.020387 C221.760705,100.391187 223.227054,100.391187 224.131502,104.020387" id="Path" fill="url(#linearGradient-3)"></path>
                        </g>
                    </g>
                    <circle id="Oval" stroke="#6C6C6C" cx="186" cy="116" r="2"></circle>
                    <circle id="Oval-Copy" stroke="#6C6C6C" cx="201" cy="116" r="2"></circle>
                    <path d="M193.5,112.605833 C195.432997,112.605833 197,113.492709 197,112.605833 C197,111.718956 195.432997,111 193.5,111 C191.567003,111 190,111.718956 190,112.605833 C190,113.492709 191.567003,112.605833 193.5,112.605833 Z" id="Oval-Copy-2" fill="#E8B0CD"></path>
                </g>
            </g>
        </g>
    </g>
</svg>